<svg id="Layer_1" data-name="Layer 1" xmlns="http://www.w3.org/2000/svg" viewBox="0 0 614 405.19"><defs><style>.cls-1{fill:#c9c2c2;}.cls-2,.cls-6{fill:#f5f5f5;}.cls-3{fill:#e7e4e4;}.cls-4{fill:#0083b3;}.cls-10,.cls-5{fill:#00567c;}.cls-10,.cls-6{isolation:isolate;}.cls-6{opacity:0.38;}.cls-7{fill:#00abc3;}.cls-11,.cls-8{fill:none;stroke:#fff;stroke-miterlimit:10;}.cls-8{stroke-width:0.97px;}.cls-9{fill:#fff;}.cls-10{opacity:0.63;}.cls-11{stroke-width:1.14px;}</style></defs><path class="cls-1" d="M465.6,4.39h0a1.79,1.79,0,0,1,1.8,1.8v35.2a1.79,1.79,0,0,1-1.8,1.8h0a1.79,1.79,0,0,1-1.8-1.8V6.19A1.79,1.79,0,0,1,465.6,4.39Z"/><path class="cls-1" d="M458.7,10.89h0a1.79,1.79,0,0,1,1.8,1.8v35.2a1.79,1.79,0,0,1-1.8,1.8h0a1.79,1.79,0,0,1-1.8-1.8V12.69A1.79,1.79,0,0,1,458.7,10.89Z"/><rect class="cls-1" x="496.5" y="17.08" width="7.2" height="24.8"/><circle class="cls-2" cx="500.06" cy="12.7" r="12.7" transform="translate(12.66 125.22) rotate(-14.45)"/><path class="cls-3" d="M497.7.29a12.46,12.46,0,0,0-4.5,9.7,12.72,12.72,0,0,0,12.7,12.7,19.42,19.42,0,0,0,2.4-.2,12.53,12.53,0,0,1-8.2,3,12.72,12.72,0,0,1-12.7-12.7A12.87,12.87,0,0,1,497.7.29Z"/><rect class="cls-3" x="490.75" y="120.98" width="19.3" height="247"/><rect class="cls-1" x="475.83" y="120.98" width="14.9" height="247"/><rect class="cls-2" x="510" y="120.99" width="14.9" height="247"/><rect class="cls-3" x="483.25" y="111.4" width="34.2" height="9.6"/><path class="cls-2" d="M517.5,121h24a4.8,4.8,0,0,0,4.8-4.8h0a4.8,4.8,0,0,0-4.8-4.8h-24Z"/><path class="cls-1" d="M459.3,121h24v-9.6h-24a4.8,4.8,0,0,0-4.8,4.8h0A4.74,4.74,0,0,0,459.3,121Z"/><polygon class="cls-4" points="500.4 56.79 557.4 56.79 539.8 111.29 500.4 111.29 461 111.29 443.3 56.79 500.4 56.79"/><path class="cls-2" d="M526.3,47.39h35a4.69,4.69,0,0,1,4.7,4.7h0a4.69,4.69,0,0,1-4.7,4.7h-35Z"/><path class="cls-1" d="M474.5,47.39h-35a4.69,4.69,0,0,0-4.7,4.7h0a4.69,4.69,0,0,0,4.7,4.7h35Z"/><rect class="cls-3" x="474.5" y="47.39" width="51.8" height="9.4"/><path class="cls-2" d="M518.7,38.79h22.5a5.55,5.55,0,0,1,5.5,5.5v3h-28Z"/><path class="cls-1" d="M482.1,38.79H459.6a5.55,5.55,0,0,0-5.5,5.5v3h28Z"/><rect class="cls-3" x="482.1" y="38.79" width="36.6" height="8.5"/><path class="cls-2" d="M512,30.29h13.4a4.48,4.48,0,0,1,4.5,4.5v4.1H512Z"/><path class="cls-1" d="M488.7,30.29H475.3a4.48,4.48,0,0,0-4.5,4.5v4.1h17.8v-8.6Z"/><rect class="cls-3" x="488.7" y="30.29" width="23.3" height="8.5"/><polygon class="cls-5" points="524.9 137.79 510 127.89 490.7 127.89 475.8 163.69 475.8 120.99 524.9 120.99 524.9 137.79"/><polygon class="cls-6" points="513 111.29 522.4 81.59 542.5 102.89 539.8 111.29 513 111.29"/><polygon class="cls-6" points="486.1 111.29 461 111.29 453.4 88.09 483.3 104.19 486.1 111.29"/><polygon class="cls-6" points="478.3 71.09 517.5 102.49 515.3 111.29 486.1 111.29 478.3 71.09"/><polygon class="cls-2" points="529.1 56.79 517.5 111.29 513.1 111.29 524 56.79 529.1 56.79"/><polygon class="cls-3" points="471.7 56.79 483.3 111.29 487.7 111.29 476.7 56.79 471.7 56.79"/><polygon class="cls-5" points="552.6 71.59 523.1 61.39 477.6 61.39 452.6 85.39 443.3 56.79 557.4 56.79 552.6 71.59"/><rect class="cls-5" x="463.89" y="12.77" width="3.6" height="7.5"/><rect class="cls-5" x="463.89" y="23.76" width="3.6" height="7.5"/><rect class="cls-5" x="456.82" y="18.86" width="3.6" height="7.5"/><rect class="cls-5" x="456.82" y="29.85" width="3.6" height="7.5"/><rect class="cls-7" x="325.5" y="336.79" width="288.4" height="68.3"/><line class="cls-8" x1="325.5" y1="353.59" x2="614" y2="353.59"/><line class="cls-8" x1="325.5" y1="366.39" x2="614" y2="366.39"/><line class="cls-8" x1="325.5" y1="379.19" x2="614" y2="379.19"/><line class="cls-8" x1="325.5" y1="391.89" x2="614" y2="391.89"/><line class="cls-8" x1="325.5" y1="404.69" x2="614" y2="404.69"/><line class="cls-8" x1="469.5" y1="366.39" x2="469.5" y2="405.09"/><polygon class="cls-6" points="371.5 344.69 371.5 405.09 352.3 405.09 360.4 344.69 371.5 344.69"/><polygon class="cls-6" points="427.2 344.69 427.2 405.09 408.1 405.09 416.1 344.69 427.2 344.69"/><polygon class="cls-6" points="561.6 344.69 561.6 405.09 542.5 405.09 550.6 344.69 561.6 344.69"/><polygon class="cls-6" points="614 344.69 614 405.09 594.8 405.09 602.9 344.69 614 344.69"/><rect class="cls-9" x="325.5" y="336.79" width="288.4" height="7.9"/><rect class="cls-9" x="371.5" y="340.79" width="6.4" height="64.4"/><rect class="cls-9" x="561.67" y="340.66" width="6.4" height="64.4"/><rect class="cls-9" x="427.2" y="340.79" width="6.4" height="64.4"/><rect class="cls-9" x="505.91" y="340.66" width="6.4" height="64.4"/><rect class="cls-10" x="325.5" y="344.69" width="288.4" height="4.7"/><rect class="cls-10" x="476.7" y="336.79" width="18.5" height="68.3"/><rect class="cls-7" x="0.12" y="336.8" width="288.4" height="68.3"/><line class="cls-8" x1="288.5" y1="353.59" y2="353.59"/><line class="cls-8" x1="288.5" y1="366.39" y2="366.39"/><line class="cls-8" x1="288.5" y1="379.19" y2="379.19"/><line class="cls-8" x1="288.5" y1="391.89" y2="391.89"/><line class="cls-8" x1="288.5" y1="404.69" y2="404.69"/><line class="cls-8" x1="144.5" y1="366.39" x2="144.5" y2="405.09"/><polygon class="cls-6" points="242.5 344.69 242.5 405.09 261.7 405.09 253.6 344.69 242.5 344.69"/><polygon class="cls-6" points="186.8 344.69 186.8 405.09 205.9 405.09 197.9 344.69 186.8 344.69"/><polygon class="cls-6" points="52.4 344.69 52.4 405.09 71.5 405.09 63.5 344.69 52.4 344.69"/><polygon class="cls-6" points="0 344.69 0 405.09 19.2 405.09 11.1 344.69 0 344.69"/><rect class="cls-9" y="336.79" width="288.4" height="7.9"/><rect class="cls-9" x="236.18" y="340.66" width="6.4" height="64.4"/><rect class="cls-9" x="46" y="340.79" width="6.4" height="64.4"/><rect class="cls-9" x="180.42" y="340.66" width="6.4" height="64.4"/><rect class="cls-9" x="101.7" y="340.79" width="6.4" height="64.4"/><rect class="cls-10" x="0.12" y="344.7" width="288.4" height="4.7"/><rect class="cls-10" x="118.75" y="336.8" width="18.5" height="68.3"/><path class="cls-7" d="M432.7,329.39s-30.5-55.9-125.4-55.9c-91.9,0-121.4,48.7-121.4,55.9C368.1,329.49,432.7,329.39,432.7,329.39Z"/><line class="cls-11" x1="408.6" y1="297.69" x2="205.4" y2="297.69"/><line class="cls-11" x1="415.1" y1="311.19" x2="198.9" y2="311.19"/><line class="cls-11" x1="353.3" y1="329.39" x2="353.3" y2="279.39"/><line class="cls-11" x1="260.7" y1="329.39" x2="260.7" y2="279.39"/><path class="cls-10" d="M422.1,329.39c-9.2-25.8-57.1-45.5-114.8-45.5s-105.7,19.7-114.8,45.5H175.8c7.9-31.5,63.7-55.9,131.5-55.9s123.6,24.4,131.5,55.9Z"/><path class="cls-9" d="M422.1,329.39c-9.2-29.3-57.1-51.6-114.8-51.6s-105.7,22.3-114.8,51.6H175.8c7.9-35.7,63.7-63.3,131.5-63.3s123.6,27.7,131.5,63.3Z"/><rect class="cls-7" x="137.31" y="324.71" width="339.4" height="80.4"/><line class="cls-11" x1="476.7" y1="344.49" x2="137.3" y2="344.49"/><line class="cls-11" x1="476.7" y1="359.59" x2="137.3" y2="359.59"/><line class="cls-11" x1="476.7" y1="374.59" x2="137.3" y2="374.59"/><line class="cls-11" x1="476.7" y1="389.59" x2="137.3" y2="389.59"/><line class="cls-11" x1="476.7" y1="404.59" x2="137.3" y2="404.59"/><rect class="cls-4" x="282.41" y="359.47" width="49.6" height="45.6"/><polyline class="cls-11" points="282.5 405.09 282.5 359.59 332 359.59 332 405.09"/><line class="cls-11" x1="307.3" y1="359.59" x2="307.3" y2="405.09"/><polygon class="cls-6" points="422.7 333.99 422.7 405.09 445.2 405.09 435.7 333.99 422.7 333.99"/><polygon class="cls-6" points="357.1 333.99 357.1 405.09 379.6 405.09 370.1 333.99 357.1 333.99"/><polygon class="cls-6" points="198.9 333.99 198.9 405.09 221.4 405.09 211.9 333.99 198.9 333.99"/><polygon class="cls-6" points="137.3 333.99 137.3 405.09 159.8 405.09 150.3 333.99 137.3 333.99"/><rect class="cls-9" x="137.3" y="324.69" width="339.4" height="9.3"/><rect class="cls-9" x="415.2" y="329.28" width="7.5" height="75.8"/><rect class="cls-9" x="191.4" y="329.39" width="7.5" height="75.8"/><rect class="cls-9" x="349.53" y="329.28" width="7.5" height="75.8"/><rect class="cls-9" x="256.9" y="329.39" width="7.5" height="75.8"/><rect class="cls-10" x="137.31" y="334.06" width="339.4" height="5.5"/></svg>