<svg id="Layer_1" data-name="Layer 1" xmlns="http://www.w3.org/2000/svg" viewBox="0 0 316.08 273.32"><defs><style>.cls-1{fill:#0084c7;}.cls-2{fill:#fafcfb;}</style></defs><path class="cls-1" d="M158,0C-23.16,0,1.63,110.11,1.63,110.11h82.7c0-55.53,52.46-54.36,73.7-54.36s73.71-1.17,73.7,54.36h82.7S339.22,0,158,0Z"/><rect class="cls-1" y="118.65" width="85.43" height="17.09"/><rect class="cls-1" x="230.65" y="118.65" width="85.43" height="17.09"/><path class="cls-1" d="M309.63,273.32a152.94,152.94,0,0,0-305.72,0Z"/><path class="cls-1" d="M219.21,155.82c0,47.48-27.4,86-61.18,86s-61.17-38.5-61.17-86,0-86,61.17-86S219.21,108.33,219.21,155.82Z"/><path class="cls-2" d="M199.44,199.7A41.41,41.41,0,1,1,158,158.29,41.41,41.41,0,0,1,199.44,199.7Z"/></svg>