<svg id="Layer_1" data-name="Layer 1" xmlns="http://www.w3.org/2000/svg" viewBox="0 0 1366.07 138.97"><defs><style>.cls-1{fill:#fff;}</style></defs><path class="cls-1" d="M1366.07,139H0a78.5,78.5,0,0,1,93.41-28c3.71-33.24,32.21-59.07,66.8-59.07A67.56,67.56,0,0,1,194.12,61a89.64,89.64,0,0,1,169.86,0,73.12,73.12,0,0,1,19.18-2.55A72.26,72.26,0,0,1,432.38,77.6,88.1,88.1,0,0,1,592,79.11a90.45,90.45,0,0,1,15-1.28,87.94,87.94,0,0,1,54.3,18.64,93.14,93.14,0,0,1,155.43,7.86,80.91,80.91,0,0,1,116.2-3.68C943.09,51.54,987.05,14.6,1039.7,14.6a109.16,109.16,0,0,1,95.65,56.08,78.06,78.06,0,0,1,19.93-2.57,76.87,76.87,0,0,1,75.08,59.12A98.25,98.25,0,0,1,1366.07,139Z"/></svg>