<svg id="Layer_1" data-name="Layer 1" xmlns="http://www.w3.org/2000/svg" viewBox="0 0 1363 259.96"><defs><style>.cls-1{fill:#fff;}</style></defs><path class="cls-1" d="M1363,260h-96.66c13.89-12.12,30.49-19.17,48.33-19.17S1349.11,247.84,1363,260Z"/><path class="cls-1" d="M1298.38,260H547.18a63.39,63.39,0,0,1,62.42-8.45,55.2,55.2,0,0,1,54.7-49.29,54.46,54.46,0,0,1,27.76,7.58,73.09,73.09,0,0,1,139.08,0,58.72,58.72,0,0,1,56,13.91,71.8,71.8,0,0,1,60.78-41.62c1.41-.09,2.85-.13,4.28-.13A71.64,71.64,0,0,1,1015,219.26c1,1.83,2,3.73,2.81,5.66a73.2,73.2,0,0,1,12.28-1.06,71.12,71.12,0,0,1,44.46,15.55,75.45,75.45,0,0,1,61.52-31.78c1.41,0,2.83,0,4.23.13A76.05,76.05,0,0,1,1201.82,246,65.39,65.39,0,0,1,1297,242.9"/><path class="cls-1" d="M817.25,259.64a60.1,60.1,0,0,0-56.17-52.81A83.17,83.17,0,0,0,749,187.37c-14.25-29.47-44.07-49.82-78.65-49.82a85.7,85.7,0,0,0-46.63,13.71,129.46,129.46,0,0,0-193.47-1c-.21.2-.4.41-.59.62-.38-.47-.74-.92-1.14-1.37v0a116.41,116.41,0,0,0-173.41-6.6A99.49,99.49,0,0,0,136.13,117C129.26,51.24,74.33,0,7.57,0,5,0,2.5.07,0,.23V259.64Z"/></svg>