<svg id="Layer_1" data-name="Layer 1" xmlns="http://www.w3.org/2000/svg" viewBox="0 0 1366 150.03"><defs><style>.cls-1{fill:#fff;}</style></defs><path class="cls-1" d="M1177.58,150a37.78,37.78,0,0,0-55.59-8.6,29.87,29.87,0,0,0-36.81-22.15A42.24,42.24,0,0,0,1006.75,131a31.11,31.11,0,0,0-45,1.44,35.87,35.87,0,0,0-60.22-3.08,33.85,33.85,0,0,0-21-7.3,34.77,34.77,0,0,0-5.81.5,34,34,0,0,0-61.84-.59,28,28,0,0,0-26.5-6.53,34.61,34.61,0,0,0-65.81,0,26,26,0,0,0-39,19.58A30.2,30.2,0,0,0,643,150Z"/><path class="cls-1" d="M1366,64.32V150H1157.09a13.76,13.76,0,0,1,4.71-20.74c-.06-.63-.1-1.26-.1-1.9A18.1,18.1,0,0,1,1191,113.14a17.51,17.51,0,0,1,33,7.76,19.68,19.68,0,0,1,26.11,6.9,13.7,13.7,0,0,1,12.26-9.25,18.43,18.43,0,0,1,33.94-13.78,19.19,19.19,0,0,1,33-17.83A25.33,25.33,0,0,1,1366,64.32Z"/><path class="cls-1" d="M697,149H0V82.85a45.15,45.15,0,0,1,77.75.08,40.16,40.16,0,0,1,63.8,19.82,35.31,35.31,0,0,1,44,4.29A50.89,50.89,0,0,1,249,85.81h0c.34.13.67.28,1,.43a51,51,0,0,1,28,31.15,35.25,35.25,0,0,1,41,8.39A22.44,22.44,0,0,1,333,120.86a22.77,22.77,0,0,1,5.82.78,26,26,0,0,1,37.27-22.09,44.22,44.22,0,0,1,87.87.68A34.32,34.32,0,0,1,504.61,109a40.15,40.15,0,0,1,59.72,2.7,44.66,44.66,0,0,1,66.38.12A29.88,29.88,0,0,1,673.57,124a27.88,27.88,0,0,1,4.14,6.58A20.47,20.47,0,0,1,697,149Z"/><path class="cls-1" d="M474.88,149a34.74,34.74,0,0,0-32.64-30.31,47.56,47.56,0,0,0-7-11.17,50.72,50.72,0,0,0-72.8-20.73A75.85,75.85,0,0,0,250,86.25l-.34.36c-.22-.27-.43-.53-.66-.79h0A68.2,68.2,0,0,0,148.21,82,58.33,58.33,0,0,0,79.1,67.14,75.14,75.14,0,0,0,4.4,0C2.92,0,1.45,0,0,.13V149Z"/></svg>