<svg id="Layer_1" data-name="Layer 1" xmlns="http://www.w3.org/2000/svg" viewBox="0 0 1356.12 392.81"><defs><style>.cls-1{fill:#fff;}</style></defs><path class="cls-1" d="M1356.12,11.8v381H276.32a67.77,67.77,0,0,1,2.22-7.26,70.4,70.4,0,0,1,2.94-6.84,71.22,71.22,0,0,1,31.7-31.95c-.12-1.33-.23-2.66-.3-4-.14-1.9-.21-3.82-.21-5.74a92.78,92.78,0,0,1,150-73A89.78,89.78,0,0,1,632,303.75a100.88,100.88,0,0,1,133.86,35.38,70.27,70.27,0,0,1,62.86-47.43,94.49,94.49,0,0,1,174-70.63,98.37,98.37,0,0,1,169.44-91.42,129.88,129.88,0,0,1,184-117.85Z"/><path class="cls-1" d="M314.1,392.81H0c48.73-23.89,101.39-36.94,156.35-36.94a352.56,352.56,0,0,1,85.89,10.58h0a359.07,359.07,0,0,1,39.23,12.26q8.5,3.19,16.88,6.84Q306.29,389,314.1,392.81Z"/><path class="cls-1" d="M434.7,385.54H216.35c31.37-27.39,68.87-43.3,109.18-43.3S403.33,358.15,434.7,385.54Z"/></svg>