<svg id="Layer_1" data-name="Layer 1" xmlns="http://www.w3.org/2000/svg" viewBox="0 0 1366 150.43"><defs><style>.cls-1{fill:#fff;}</style></defs><path class="cls-1" d="M1160.57,149H631.3a30.2,30.2,0,0,1,36.19-11,26,26,0,0,1,39-19.58,34.61,34.61,0,0,1,65.81,0,28,28,0,0,1,26.5,6.53,34,34,0,0,1,61.84.59,34.77,34.77,0,0,1,5.81-.5,33.85,33.85,0,0,1,21,7.3,35.87,35.87,0,0,1,60.22,3.08,31.11,31.11,0,0,1,45-1.44,42.24,42.24,0,0,1,78.43-11.74A29.87,29.87,0,0,1,1108,144.43a37.78,37.78,0,0,1,52.58,4.6Z"/><path class="cls-1" d="M639.6,148H598.26a37.81,37.81,0,0,1,41.34,0Z"/><path class="cls-1" d="M702.6,148H661.26a37.81,37.81,0,0,1,41.34,0Z"/><path class="cls-1" d="M1366,63.32V149H1157.09a13.76,13.76,0,0,1,4.71-20.74c-.06-.63-.1-1.26-.1-1.9A18.1,18.1,0,0,1,1191,112.14a17.51,17.51,0,0,1,33,7.76,19.68,19.68,0,0,1,26.11,6.9,13.7,13.7,0,0,1,12.26-9.25,18.43,18.43,0,0,1,33.94-13.78,19.19,19.19,0,0,1,33-17.83A25.33,25.33,0,0,1,1366,63.32Z"/><path class="cls-1" d="M594.33,149H125a30.22,30.22,0,0,1,29.54-4,26,26,0,0,1,39-19.58,34.61,34.61,0,0,1,64.41-3.61,33.8,33.8,0,0,1,1.4,3.59,28,28,0,0,1,26.5,6.53,34,34,0,0,1,28.76-19.54c.67,0,1.35-.06,2-.06a33.94,33.94,0,0,1,29.72,17.53c.48.86.93,1.75,1.33,2.66a34.77,34.77,0,0,1,5.81-.5,33.85,33.85,0,0,1,21,7.3,35.79,35.79,0,0,1,29.11-14.92c.67,0,1.34,0,2,.06a36,36,0,0,1,29.11,17.94,31.11,31.11,0,0,1,45-1.44,42.24,42.24,0,0,1,72.88-19.6,42.55,42.55,0,0,1,5.55,7.86A29.87,29.87,0,0,1,594.33,149Z"/><path class="cls-1" d="M587.58,149a37.78,37.78,0,0,0-55.59-8.6,29.87,29.87,0,0,0-36.81-22.15A42.24,42.24,0,0,0,416.75,130a31.11,31.11,0,0,0-45,1.44,35.87,35.87,0,0,0-60.22-3.08,33.85,33.85,0,0,0-21-7.3,34.77,34.77,0,0,0-5.81.5,34,34,0,0,0-61.84-.59,28,28,0,0,0-26.5-6.53,34.61,34.61,0,0,0-65.81,0,26,26,0,0,0-39,19.58A30.2,30.2,0,0,0,53,149Z"/><path class="cls-1" d="M657.33,148H598.26a38.09,38.09,0,0,0-3.27,2.4q-.29-1.22-.66-2.4H188a30.22,30.22,0,0,1,29.54-4,26,26,0,0,1,39-19.58,32.15,32.15,0,0,1,1.41-3.61,34.62,34.62,0,0,1,64.4,3.59,28,28,0,0,1,7.43-1,27.76,27.76,0,0,1,16.58,5.46,27.32,27.32,0,0,1,2.49,2.07,34,34,0,0,1,61.84.59,34.77,34.77,0,0,1,5.81-.5,33.69,33.69,0,0,1,11.66,2.07,33.31,33.31,0,0,1,9.38,5.23,35.87,35.87,0,0,1,60.22,3.08,31.11,31.11,0,0,1,45-1.44,42.24,42.24,0,0,1,78.43-11.74A29.87,29.87,0,0,1,657.33,148Z"/><path class="cls-1" d="M474.88,149a34.74,34.74,0,0,0-32.64-30.31,47.56,47.56,0,0,0-7-11.17,50.72,50.72,0,0,0-72.8-20.73A75.85,75.85,0,0,0,250,86.25l-.34.36c-.22-.27-.43-.53-.66-.79h0A68.2,68.2,0,0,0,148.21,82,58.33,58.33,0,0,0,79.1,67.14,75.14,75.14,0,0,0,4.4,0C2.92,0,1.45,0,0,.13V149Z"/><path class="cls-1" d="M595,150.43q-.29-1.22-.66-2.4h3.93A38.09,38.09,0,0,0,595,150.43Z"/><path class="cls-1" d="M661.26,148a38.09,38.09,0,0,0-3.27,2.4q-.29-1.22-.66-2.4Z"/></svg>