<svg id="Layer_1" data-name="Layer 1" xmlns="http://www.w3.org/2000/svg" viewBox="0 0 501.91 501.91"><defs><style>.cls-1{fill:#fff;}.cls-2{fill:#ebebeb;}.cls-3{fill:#dfdfdf;}.cls-4{fill:#b8b8b8;opacity:0.2;}</style></defs><circle class="cls-1" cx="250.95" cy="250.95" r="250.95" transform="translate(-103.95 250.95) rotate(-45)"/><circle class="cls-2" cx="264.14" cy="387.25" r="46.38"/><path class="cls-3" d="M221.31,391.56a46.33,46.33,0,0,1,80.36-31.49,46.33,46.33,0,1,0-71.5,58.67A46.07,46.07,0,0,1,221.31,391.56Z"/><circle class="cls-2" cx="104.07" cy="206.26" r="63.96" transform="translate(-1.9 0.97) rotate(-0.53)"/><path class="cls-3" d="M45,212.22a63.89,63.89,0,0,1,110.81-43.44,63.9,63.9,0,1,0-98.6,80.92A63.56,63.56,0,0,1,45,212.22Z"/><circle class="cls-2" cx="381.61" cy="117.36" r="27.2"/><path class="cls-3" d="M356.5,119.89a27.17,27.17,0,0,1,47.12-18.47,27.17,27.17,0,1,0-41.93,34.41A27.08,27.08,0,0,1,356.5,119.89Z"/><circle class="cls-2" cx="224.8" cy="65.6" r="33.8" transform="translate(19.46 178.17) rotate(-45)"/><path class="cls-3" d="M193.59,68.74a33.76,33.76,0,0,1,58.56-22.95A33.77,33.77,0,1,0,200,88.55,33.62,33.62,0,0,1,193.59,68.74Z"/><path class="cls-2" d="M274.41,56.11a15.81,15.81,0,1,1,15.81-15.8A15.8,15.8,0,0,1,274.41,56.11Z"/><path class="cls-3" d="M259.81,41.78A15.79,15.79,0,0,1,287.2,31a15.79,15.79,0,1,0-24.37,20A15.71,15.71,0,0,1,259.81,41.78Z"/><path class="cls-2" d="M24.31,266.76A15.81,15.81,0,1,1,40.11,251,15.81,15.81,0,0,1,24.31,266.76Z"/><path class="cls-3" d="M9.71,252.42A15.79,15.79,0,0,1,37.1,241.69a15.79,15.79,0,1,0-24.37,20A15.74,15.74,0,0,1,9.71,252.42Z"/><path class="cls-2" d="M112.26,135.83a7.91,7.91,0,1,1,7.91-7.91A7.91,7.91,0,0,1,112.26,135.83Z"/><path class="cls-3" d="M105,128.66a7.89,7.89,0,0,1,13.69-5.37,7.9,7.9,0,1,0-12.18,10A7.82,7.82,0,0,1,105,128.66Z"/><path class="cls-2" d="M56.79,282.57a7.91,7.91,0,1,1,7.91-7.91A7.91,7.91,0,0,1,56.79,282.57Z"/><path class="cls-3" d="M49.5,275.4A7.9,7.9,0,0,1,63.19,270,7.9,7.9,0,1,0,51,280,7.88,7.88,0,0,1,49.5,275.4Z"/><path class="cls-2" d="M326.45,381.59a7.91,7.91,0,1,1,7.9-7.91A7.91,7.91,0,0,1,326.45,381.59Z"/><path class="cls-3" d="M319.15,374.42a7.9,7.9,0,0,1,13.69-5.37,7.9,7.9,0,1,0-12.18,10A7.82,7.82,0,0,1,319.15,374.42Z"/><path class="cls-2" d="M379,163.69a7.91,7.91,0,1,1,7.9-7.91A7.91,7.91,0,0,1,379,163.69Z"/><path class="cls-3" d="M371.72,156.52a7.9,7.9,0,0,1,13.69-5.37,7.9,7.9,0,1,0-12.18,10A7.82,7.82,0,0,1,371.72,156.52Z"/><circle class="cls-2" cx="455.82" cy="212.37" r="15.81"/><path class="cls-3" d="M441.22,213.84a15.79,15.79,0,0,1,27.39-10.73,15.79,15.79,0,1,0-24.37,20A15.74,15.74,0,0,1,441.22,213.84Z"/><path class="cls-2" d="M354.42,455.19a15.81,15.81,0,1,1,15.8-15.8A15.8,15.8,0,0,1,354.42,455.19Z"/><path class="cls-3" d="M339.82,440.86a15.79,15.79,0,0,1,27.38-10.74,15.79,15.79,0,1,0-24.36,20A15.71,15.71,0,0,1,339.82,440.86Z"/><circle class="cls-2" cx="328.88" cy="330.03" r="25.53"/><path class="cls-3" d="M305.3,332.41a25.51,25.51,0,0,1,44.24-17.34,25.51,25.51,0,1,0-39.36,32.3A25.31,25.31,0,0,1,305.3,332.41Z"/><circle class="cls-2" cx="171.43" cy="398.05" r="25.53"/><path class="cls-3" d="M147.85,400.42a25.5,25.5,0,0,1,44.23-17.34,25.51,25.51,0,1,0-39.36,32.31A25.42,25.42,0,0,1,147.85,400.42Z"/><path class="cls-4" d="M195.56,405.22A304.36,304.36,0,0,1,19.77,348.67c37.94,89.66,126.51,152.76,230,153.24,138.6.63,251.47-111.21,252.11-249.81a251.08,251.08,0,0,0-10.05-71.48C456.13,310.62,336.82,405.87,195.56,405.22Z"/><path class="cls-4" d="M216.36,450.37a304.29,304.29,0,0,1-167.8-51.05A250.6,250.6,0,0,0,249.8,501.91c136.51.62,248-107.89,251.92-243.58C456.39,371.37,345.55,451,216.36,450.37Z"/></svg>