<svg id="Layer_1" data-name="Layer 1" xmlns="http://www.w3.org/2000/svg" viewBox="0 0 497.51 491.45"><defs><style>.cls-1{fill:#fff;}</style></defs><path class="cls-1" d="M154.33,383.31,437.12,149.62A128.9,128.9,0,0,0,474.81,93l21.08-49.22c8.35-25-17.07-50.46-42.11-42.11L404.56,22.7a128.91,128.91,0,0,0-56.67,37.68l-229,277.1-95.64-3.25A23.06,23.06,0,0,0,6,340.87L1.92,345c-3.55,3.55-2,9.84,3,11.8l77,30.6a20.5,20.5,0,0,0,6,16.16l3,3,3,3a20.79,20.79,0,0,0,12.49,6l28.21,70.95c2,4.93,8.25,6.52,11.8,3l4.11-4.11a23,23,0,0,0,6.64-17.23Z"/><path class="cls-1" d="M283.05,102.81,60,60.55a25.59,25.59,0,0,0-23,6.8l-9.09,9.09c-3.39,3.39-2.17,9.35,2.38,11.64l187.16,94.11Z"/><path class="cls-1" d="M435.29,435.84,393.4,214.73,314.45,280l93.32,185.59c2.29,4.55,8.25,5.77,11.64,2.38l9.09-9.09A25.56,25.56,0,0,0,435.29,435.84Z"/></svg>