<svg id="Layer_1" data-name="Layer 1" xmlns="http://www.w3.org/2000/svg" viewBox="0 0 514.26 403.47"><defs><style>.cls-1{fill:#fff;}</style></defs><rect class="cls-1" x="88.55" y="346.5" width="312.14" height="56.97"/><path class="cls-1" d="M494.7,1.35a14.67,14.67,0,0,0-6,5.59l-29.33,46.5a90.09,90.09,0,0,1-52.81,38.93c-.58.16-1.17.3-1.75.45L287.63,122.73a.71.71,0,0,1-.85-.92L323.43,16.7a7.62,7.62,0,0,0-9.87-9.64l-24.78,9.31a12.36,12.36,0,0,0-5.72,4.42l-88.77,125.6a.74.74,0,0,1-.41.28l-48.66,12.42c-39.27,10-73,20.61-102.55,50.19C23.25,228.7.84,275.92.83,276A35.23,35.23,0,0,0,.5,289.38c3.52,19,23.94,26.34,47.63,16.33l241.64-98.46,171-69.67L490.52,125a33.15,33.15,0,0,0,20.21-29.09l3.51-81.63A13.66,13.66,0,0,0,494.7,1.35Z"/><path class="cls-1" d="M378.49,257.63l4.91-5a5.54,5.54,0,0,0-1-8.58l-51.29-32.2L259.54,241.2l93.09,24.09A27.81,27.81,0,0,0,378.49,257.63Z"/></svg>