<svg xmlns="http://www.w3.org/2000/svg" xmlns:xlink="http://www.w3.org/1999/xlink" viewBox="0 0 524.27 730.5"><defs><style>.cls-1,.cls-13,.cls-7{fill:none;}.cls-2{isolation:isolate;}.cls-3{clip-path:url(#clip-path);}.cls-4{fill:#004159;}.cls-5{fill:#00567c;}.cls-6{fill:#e4b02f;}.cls-7{stroke:#004159;stroke-width:2.99px;}.cls-13,.cls-7{stroke-miterlimit:10;}.cls-8{fill:#e99980;}.cls-9{fill:#3f0000;}.cls-10{fill:#300d0c;}.cls-11{fill:#bd725e;}.cls-12{fill:#770c1b;}.cls-13{stroke:#770c1b;stroke-width:1.56px;}.cls-14,.cls-15{fill:#feede4;mix-blend-mode:overlay;}.cls-14{opacity:0.29;}.cls-15{opacity:0.2;}.cls-16{fill:#f5f5f5;}.cls-17{fill:#dad7cc;}.cls-18{fill:#0093b2;}.cls-19{fill:#892d27;mix-blend-mode:multiply;opacity:0.42;}.cls-20{fill:#002736;}.cls-21{fill:#e2ae2f;}</style><clipPath id="clip-path"><rect class="cls-1" width="524.27" height="730.5"/></clipPath></defs><g class="cls-2"><g id="Layer_1" data-name="Layer 1"><g class="cls-3"><path class="cls-4" d="M416.65,317.41s43.18,16.81,50.1,108.77S482.24,584.35,479.27,613s-18.45,203.75-18.45,203.75h-58Z"/><path class="cls-5" d="M438.08,590.33a50.41,50.41,0,0,0,38.68,49c1.12-12,2-21.35,2.51-26.3,1.52-14.63,0-39-2.71-71.65A50.41,50.41,0,0,0,438.08,590.33Z"/><path class="cls-4" d="M140.44,317.41s-43.18,16.81-50.1,108.77S74.85,584.35,77.82,613,96.27,816.78,96.27,816.78h58Z"/><path class="cls-5" d="M119,590.33a50.41,50.41,0,0,1-38.68,49c-1.12-12-2-21.35-2.51-26.3-1.52-14.63,0-39,2.71-71.65A50.42,50.42,0,0,1,119,590.33Z"/><path class="cls-5" d="M308.21,263.68l108.44,53.73-5.93,445.64s-56,21.09-132.18,21.09v-499Z"/><polygon class="cls-6" points="386.62 302.53 379.32 345.86 388.09 347.34 394.94 306.65 386.62 302.53"/><polygon class="cls-6" points="401.89 310.09 395.41 348.57 404.18 350.05 410.22 314.22 401.89 310.09"/><path class="cls-4" d="M411.76,685.19c-32.42-4.58-62.68-36.52-62.68-36.52v30.16a146.53,146.53,0,0,0,62.32,33.06Z"/><path class="cls-5" d="M248.88,263.68,140.44,317.41l5.93,445.64s56,21.09,132.17,21.09v-499Z"/><polygon class="cls-6" points="170.47 302.53 177.77 345.86 169 347.34 162.14 306.65 170.47 302.53"/><polygon class="cls-6" points="155.2 310.09 161.68 348.57 152.91 350.05 146.87 314.22 155.2 310.09"/><path class="cls-4" d="M145.33,685.19c32.42-4.58,62.68-36.52,62.68-36.52v30.16a146.53,146.53,0,0,1-62.32,33.06Z"/><path class="cls-6" d="M266.51,513.39a8.9,8.9,0,1,1-7-7A8.91,8.91,0,0,1,266.51,513.39Z"/><path class="cls-6" d="M266.51,615.74a8.9,8.9,0,1,1-7-7A8.91,8.91,0,0,1,266.51,615.74Z"/><path class="cls-6" d="M266.51,718.08a8.9,8.9,0,1,1-7-7A8.91,8.91,0,0,1,266.51,718.08Z"/><line class="cls-7" x1="278.54" y1="437.89" x2="278.54" y2="784.14"/><path class="cls-8" d="M277.14,302h0a36.92,36.92,0,0,0,36.92-36.92V215.9H240.22v49.19A36.92,36.92,0,0,0,277.14,302Z"/><path class="cls-9" d="M314.06,256.46c0,.07,0,.13,0,.2-47.53,0-59.78-19.87-59.78-19.87l46.3-13.95,13.2-3.59h.29Z"/><path class="cls-10" d="M208,154.45s-11-49,1-76.83c-17.49-10.29-17.84-18.18,1.37-12.35,2.06-24,7.55-23.33,12.7-5.49,23-19.21,67.91-24,103.93-15.44s-10.63,15.1-10.63,15.1c41.16,7.2,35,12.2,34.68,29s-.3,22.09-.3,22.09-3.85,43.57-7.28,49.4S208,154.45,208,154.45Z"/><path class="cls-8" d="M362.56,178.59c-6,9.45-17.95,12.6-26.76,7s-11.12-17.74-5.15-27.19,18-12.6,26.76-7S368.52,169.14,362.56,178.59Z"/><path class="cls-11" d="M362.56,178.59a20.31,20.31,0,0,0,.2-21.93,20.84,20.84,0,0,0-19.92,31.54A20.3,20.3,0,0,0,362.56,178.59Z"/><path class="cls-8" d="M191.39,178.59c6,9.45,17.94,12.6,26.75,7s11.12-17.74,5.15-27.19-17.95-12.6-26.76-7S185.42,169.14,191.39,178.59Z"/><path class="cls-8" d="M217.28,129.07c.55-16,5.58-31.3,16.54-43.1,8.5,11,28.22,32.36,56.87,38.64,14.41,3.77-14.75-18.52-16.46-22.64a196.87,196.87,0,0,0,61.34,16.32,82,82,0,0,1,1.09,10.78c1,29.84-2.06,72-20.58,93.64S277,244.33,277,244.33s-20.58,0-39.1-21.62S216.26,158.91,217.28,129.07Z"/><path class="cls-11" d="M191.39,178.59a20.31,20.31,0,0,1-.21-21.93A20.84,20.84,0,0,1,211.1,188.2,20.28,20.28,0,0,1,191.39,178.59Z"/><path class="cls-12" d="M263.25,161.31a38.5,38.5,0,0,0-25.9-4.83c-2.09.23-4.23.77-6.34,1.06a32.4,32.4,0,0,1,3.79-2.22c.71-.28,2.41-1,3.1-1.22a30.33,30.33,0,0,1,6.61-1.16c7-.23,14.61,2.52,18.74,8.37Z"/><path class="cls-10" d="M264.28,133.53s-22.93-6.5-35,3.77c-1.72-7.2,8.58-17.49,19.21-16.81S264.28,133.53,264.28,133.53Z"/><path class="cls-12" d="M290.69,161.31c4.14-5.85,11.72-8.6,18.74-8.37A30.23,30.23,0,0,1,316,154.1c.68.24,2.41,1,3.1,1.22a33.38,33.38,0,0,1,3.8,2.22c-2.12-.29-4.26-.83-6.35-1.06a38.5,38.5,0,0,0-25.9,4.83Z"/><path class="cls-10" d="M289.66,133.53s22.93-6.5,35,3.77c1.72-7.2-8.57-17.49-19.21-16.81S289.66,133.53,289.66,133.53Z"/><polyline class="cls-13" points="280.74 180.87 280.74 196.65 270.45 192.87"/><path class="cls-13" d="M296.52,203.16s-21.26,7.21-41.5,0"/><path class="cls-14" d="M286.23,89.62c-25.32-6.52-43.08-28.13-50.13-38.09,24.54-12.14,60.84-14.36,91-7.19,36,8.58-10.63,15.1-10.63,15.1A89.37,89.37,0,0,1,366,85.54C327.83,86.67,280.74,67,280.74,67S319.51,98.2,286.23,89.62Z"/><path class="cls-15" d="M233.82,86c8.5,11,28.22,32.36,56.87,38.64,14.41,3.77-14.75-18.52-16.46-22.64a199,199,0,0,0,49,14.72c.71,25.28-.8,120.15-62.77,123.31a64.64,64.64,0,0,1-22.56-17.29c-18.53-21.61-21.61-63.8-20.59-93.64C217.83,113.1,222.86,97.77,233.82,86Z"/><path class="cls-4" d="M377.85,391.34,347.55,364l25.13-6.66c.87-24.3-7.95-50.37-15.37-67.77l-30.45-15.36-49.51,15.87V467.86C360.12,455,377.85,391.34,377.85,391.34Z"/><path class="cls-4" d="M176.84,391.34,207.14,364,182,357.34c-.87-24.3,8-50.37,15.37-67.77l30.45-15.36,49.52,15.87V467.86C194.57,455,176.84,391.34,176.84,391.34Z"/><path class="cls-16" d="M227.83,274.21l49.52,15.87,49.51-15.87s14,93.85-49.51,193.65C213.85,368.06,227.83,274.21,227.83,274.21Z"/><polygon class="cls-17" points="277.35 290.08 238.55 324.83 227.83 274.2 240.22 256.66 277.35 290.08"/><polygon class="cls-17" points="277.35 290.08 316.14 324.83 326.86 274.2 314.06 256.66 277.35 290.08"/><polygon class="cls-18" points="277.04 290.36 277.03 290.08 277.19 290.22 277.35 290.08 277.34 290.36 296.5 307.51 291.5 331.97 277.19 331.97 262.88 331.97 257.88 307.51 277.04 290.36"/><path class="cls-18" d="M262.88,332h14.31l.16.84.15-.84h14.31s8.49,30.73,10.52,88.58a331.06,331.06,0,0,1-25,47.31,330.15,330.15,0,0,1-25-47.31C254.39,362.7,262.88,332,262.88,332Z"/><path class="cls-19" d="M349.27,125.79c.93-8.52,1.53-15.25,1.53-15.25s0-5.28.3-22.09c0-1.17.08-2.26.14-3.32-22.39-3.85-119.76-17.82-147.76,24.23,0,.26,0,.51,0,.77C208.78,112.31,273.32,137.85,349.27,125.79Z"/><path class="cls-5" d="M372.48,51.29c-11.86-7.25-17.79-8.24-40.54-24.72s-53.4-14.83-53.4-14.83-30.65-1.65-53.39,14.83S196.47,44,184.6,51.29s-1,47.14,18.46,58.67L278.54,106,354,110C373.47,98.43,384.35,58.54,372.48,51.29Z"/><path class="cls-20" d="M203.06,110s73.84,14.18,151,0C339.19,98.1,259.1,81,203.06,110Z"/><rect class="cls-4" x="302.11" y="513.65" width="88.5" height="20.77"/></g><path class="cls-21" d="M292.15,57.34V55.92a15.43,15.43,0,0,1-2.82.82V53.48a1.83,1.83,0,0,1-1.83-1.83H271a2,2,0,0,1-2,2v3.26a15.59,15.59,0,0,1-2.82-.8v1.41a36.36,36.36,0,0,0,3.44,16.29c.2.41.39.61.61,1a19.79,19.79,0,0,0,5.05,5.88c.41.2.6.6,1,.8s.6.41,1,.6a6.09,6.09,0,0,0,2,1c.82-.41,1.42-.8,2.22-1.2h0c.41-.22.82-.61,1.22-.82a2.76,2.76,0,0,1,.8-.6,19.75,19.75,0,0,0,5-5.84c.21-.41.41-.62.6-1A41,41,0,0,0,292.15,57.34Zm-8.07,16c-.2.61-.8,1-1.63,1.42a8,8,0,0,1-3,.61,9.11,9.11,0,0,1-3.26-.61A2.85,2.85,0,0,1,274.54,73a11.89,11.89,0,0,1-.4-3V68.83h4.35v2.22c0,.6,0,1,.19,1.2s.41.41.61.2.6-.2.6-.39a1.7,1.7,0,0,0,.21-1,3.9,3.9,0,0,0-.4-2c-.2-.41-1-.8-2.22-1.63a8.65,8.65,0,0,1-2.22-1.63,3.46,3.46,0,0,1-1-1.41,11,11,0,0,1-.41-2.21,5.86,5.86,0,0,1,.61-3,3.5,3.5,0,0,1,1.63-1.41,6.55,6.55,0,0,1,2.83-.61,8.22,8.22,0,0,1,3,.61c.81.4,1.42.8,1.63,1.41a10,10,0,0,1,.41,3v.6h-4.24V61.54c0-.61,0-1-.2-1.22a.73.73,0,0,0-.6-.19c-.21,0-.41.19-.62.4a1.89,1.89,0,0,0-.2,1,3.55,3.55,0,0,0,.2,1.41,9.76,9.76,0,0,0,1.22,1,11,11,0,0,1,3.83,3,8.45,8.45,0,0,1,.8,3.83A2.87,2.87,0,0,1,284.08,73.39Z"/><path class="cls-21" d="M289.72,74.68h30.85c-8.26,5.23-12.74,5.84-12.74,5.84H285.5A25.57,25.57,0,0,0,289.72,74.68Z"/><path class="cls-21" d="M341.34,57.34c-3.26,3.26-6,5.83-8.87,8.26H293.35l-.79,1.21h38.71a97.75,97.75,0,0,1-9.08,6.86H290.34a38.29,38.29,0,0,0,3.42-16.3Z"/><path class="cls-21" d="M264.93,65.6H225.81c-2.82-2.43-5.64-5-8.87-8.26h47.58a46.74,46.74,0,0,0,1,9.06Z"/><path class="cls-21" d="M268,73.67H236.31a103.69,103.69,0,0,1-9.08-6.8h38.3A38.77,38.77,0,0,0,268,73.67Z"/><path class="cls-21" d="M268.35,74.68a21.84,21.84,0,0,0,4.43,5.84H250.62s-4.65-.8-12.7-5.84Z"/></g></g></svg>