<svg xmlns="http://www.w3.org/2000/svg" xmlns:xlink="http://www.w3.org/1999/xlink" viewBox="0 0 351.76 638.19"><defs><style>.cls-1,.cls-10,.cls-11,.cls-16{fill:none;}.cls-2{isolation:isolate;}.cls-3{fill:#e4b02f;}.cls-4{clip-path:url(#clip-path);}.cls-5{fill:#003243;}.cls-6{fill:#002632;}.cls-7{fill:#004159;}.cls-8{fill:#00567c;}.cls-9{fill:#e99980;}.cls-10{stroke:#680301;stroke-width:1px;}.cls-10,.cls-11,.cls-16{stroke-miterlimit:10;}.cls-11{stroke:#004159;stroke-width:1.99px;}.cls-12{fill:#3f0000;}.cls-13{fill:#300d0c;}.cls-14{fill:#bd725e;}.cls-15{fill:#770c1b;}.cls-16{stroke:#770c1b;stroke-width:1.04px;}.cls-17,.cls-18{fill:#feede4;mix-blend-mode:overlay;}.cls-17{opacity:0.29;}.cls-18{opacity:0.2;}.cls-19{fill:#f5f5f5;}.cls-20{fill:#dad7cc;}.cls-21{fill:#0093b2;}.cls-22{fill:#892d27;mix-blend-mode:multiply;opacity:0.42;}.cls-23{fill:#002736;}.cls-24{fill:#e2ae2f;}</style><clipPath id="clip-path"><rect class="cls-1" y="28.4" width="351.76" height="481.8"/></clipPath></defs><g class="cls-2"><g id="Layer_1" data-name="Layer 1"><path class="cls-3" d="M175.25,0l.12.24"/><g class="cls-4"><polygon class="cls-5" points="187.11 524.05 98.65 531.66 103.95 638.19 178.93 638.19 187.11 594.49 195.29 638.19 270.27 638.19 275.57 531.66 187.11 524.05"/><path class="cls-6" d="M98.65,531.66,104,638.19h12.75a426.49,426.49,0,0,1,7.84-88.05c61.28,12.42,132.57-5.94,150.66-11.1l.36-7.38-88.46-7.61Z"/><path class="cls-7" d="M279.55,237.74s29,11.09,33.62,71.74,10.39,104.32,8.4,123.24S309.19,567.1,309.19,567.1H270.27Z"/><path class="cls-8" d="M293.93,417.75a33.36,33.36,0,0,0,25.95,32.31c.75-7.93,1.35-14.08,1.69-17.34,1-9.65,0-25.75-1.82-47.26A33.38,33.38,0,0,0,293.93,417.75Z"/><path class="cls-8" d="M270.87,545.58l-.6,21.52h38.92s.77-8.62,1.94-21.52Z"/><path class="cls-7" d="M94.23,237.74s-29,11.09-33.62,71.74S50.22,413.8,52.21,432.72,64.59,567.1,64.59,567.1h38.92Z"/><path class="cls-8" d="M79.85,417.75A33.36,33.36,0,0,1,53.9,450.06c-.75-7.93-1.35-14.08-1.69-17.34-1-9.65,0-25.75,1.82-47.26A33.38,33.38,0,0,1,79.85,417.75Z"/><path class="cls-8" d="M102.91,545.58l.6,21.52H64.59s-.77-8.62-1.94-21.52Z"/><path class="cls-9" d="M99.31,567.1v31.74a8.39,8.39,0,0,1-8.46,8.32H88.56s2.08,24.56,0,30S76.77,624.9,74.69,611.94s-5.9-44.84-5.9-44.84Z"/><path class="cls-8" d="M206.79,202.31l72.76,35.43-4,293.92S238,545.58,186.89,545.58V216.44Z"/><polygon class="cls-3" points="259.4 227.93 254.5 256.51 260.39 257.48 264.99 230.65 259.4 227.93"/><polygon class="cls-3" points="269.65 232.92 265.3 258.3 271.19 259.27 275.24 235.64 269.65 232.92"/><path class="cls-7" d="M276.27,480.31c-21.75-3-42-24.08-42-24.08v19.89A98.89,98.89,0,0,0,276,497.92Z"/><path class="cls-8" d="M167,202.31,94.23,237.74l4,293.92s37.59,13.92,88.68,13.92V216.44Z"/><polygon class="cls-3" points="114.38 227.93 119.28 256.51 113.39 257.48 108.79 230.65 114.38 227.93"/><polygon class="cls-3" points="104.13 232.92 108.48 258.3 102.59 259.27 98.54 235.64 104.13 232.92"/><path class="cls-7" d="M97.51,480.31c21.75-3,42.05-24.08,42.05-24.08v19.89a98.89,98.89,0,0,1-41.81,21.8Z"/><line class="cls-10" x1="88.56" y1="607.16" x2="86.83" y2="589.77"/><path class="cls-9" d="M274.47,567.1v31.74a8.38,8.38,0,0,0,8.46,8.32h2.29s-2.08,24.56,0,30S297,624.9,299.09,611.94,305,567.1,305,567.1Z"/><line class="cls-10" x1="285.22" y1="607.16" x2="286.95" y2="589.77"/><path class="cls-3" d="M178.82,367a6,6,0,1,1-4.69-4.61A5.93,5.93,0,0,1,178.82,367Z"/><path class="cls-3" d="M178.82,434.5a6,6,0,1,1-4.69-4.61A5.93,5.93,0,0,1,178.82,434.5Z"/><path class="cls-3" d="M178.82,502a6,6,0,1,1-4.69-4.62A5.93,5.93,0,0,1,178.82,502Z"/><line class="cls-11" x1="186.89" y1="317.21" x2="186.89" y2="545.58"/><path class="cls-9" d="M186,227.59h0a24.57,24.57,0,0,0,24.77-24.35V170.79H161.18v32.45A24.57,24.57,0,0,0,186,227.59Z"/><path class="cls-12" d="M210.72,197.54a.53.53,0,0,1,0,.13c-31.89,0-40.1-13.1-40.1-13.1l31-9.2,8.86-2.37h.2Z"/><path class="cls-13" d="M139.57,130.26s-7.36-32.35.69-50.67c-11.73-6.79-12-12,.92-8.15,1.38-15.83,5.07-15.38,8.52-3.62C165.12,55.16,195.27,52,219.44,57.64s-7.14,10-7.14,10c27.62,4.75,23.5,8.05,23.27,19.13s-.2,14.57-.2,14.57-2.59,28.74-4.89,32.59S139.57,130.26,139.57,130.26Z"/><path class="cls-9" d="M243.26,146.19c-4,6.23-12,8.31-18,4.64s-7.45-11.7-3.45-17.93,12-8.31,18-4.64S247.26,140,243.26,146.19Z"/><path class="cls-14" d="M243.26,146.19a13.22,13.22,0,0,0,.13-14.47,13.71,13.71,0,0,0-13.23,6.34,13.22,13.22,0,0,0-.13,14.47A13.73,13.73,0,0,0,243.26,146.19Z"/><path class="cls-9" d="M128.41,146.19c4,6.23,12,8.31,18,4.64s7.46-11.7,3.46-17.93-12-8.31-18-4.64S124.41,140,128.41,146.19Z"/><path class="cls-9" d="M145.79,113.52c.37-10.52,3.74-20.64,11.09-28.42,5.71,7.24,18.93,21.34,38.16,25.48,9.67,2.49-9.9-12.21-11-14.93a133.8,133.8,0,0,0,41.16,10.77,52.4,52.4,0,0,1,.73,7.1c.69,19.69-1.38,47.51-13.81,61.77s-26.24,14.25-26.24,14.25-13.81,0-26.23-14.25S145.1,133.21,145.79,113.52Z"/><path class="cls-14" d="M128.41,146.19a13.22,13.22,0,0,1-.14-14.47,13.69,13.69,0,0,1,13.23,6.34,13.2,13.2,0,0,1,.14,14.47A13.72,13.72,0,0,1,128.41,146.19Z"/><path class="cls-15" d="M176.63,134.79a26.21,26.21,0,0,0-17.38-3.18c-1.4.15-2.84.5-4.26.69,6.43-4.59,16.73-4.1,21.64,2.49Z"/><path class="cls-13" d="M177.32,116.47s-15.39-4.29-23.48,2.48c-1.15-4.75,5.76-11.53,12.89-11.08S177.32,116.47,177.32,116.47Z"/><path class="cls-15" d="M195,134.79c4.9-6.59,15.21-7.08,21.63-2.49-1.41-.19-2.85-.54-4.25-.69A26.21,26.21,0,0,0,195,134.79Z"/><path class="cls-13" d="M194.35,116.47s15.39-4.29,23.47,2.48c1.16-4.75-5.75-11.53-12.88-11.08S194.35,116.47,194.35,116.47Z"/><polyline class="cls-16" points="188.37 147.69 188.37 158.09 181.46 155.6"/><path class="cls-16" d="M199,162.39s-14.27,4.75-27.85,0"/><path class="cls-17" d="M192.05,87.51c-17-4.31-28.91-18.56-33.64-25.13,16.47-8,40.82-9.46,61-4.74,24.16,5.66-7.14,10-7.14,10a60.31,60.31,0,0,1,33.29,17.21c-25.63.75-57.22-12.23-57.22-12.23S214.37,93.16,192.05,87.51Z"/><path class="cls-18" d="M156.88,85.1c5.71,7.24,18.93,21.34,38.16,25.48,9.67,2.49-9.9-12.21-11-14.93a135.21,135.21,0,0,0,32.86,9.71c.48,16.68-.53,79.25-42.11,81.33a43.29,43.29,0,0,1-15.14-11.4c-12.43-14.26-14.5-42.08-13.81-61.77C146.16,103,149.53,92.88,156.88,85.1Z"/><path class="cls-7" d="M253.52,286.5l-20.33-18,16.86-4.39c.58-16-5.33-33.22-10.32-44.7l-20.42-10.13-33.23,10.47V337C241.62,328.46,253.52,286.5,253.52,286.5Z"/><path class="cls-7" d="M118.65,286.5l20.33-18-16.86-4.39c-.58-16,5.33-33.22,10.32-44.7l20.42-10.13,33.22,10.47V337C130.55,328.46,118.65,286.5,118.65,286.5Z"/><path class="cls-19" d="M152.86,209.25l33.22,10.47,33.23-10.47s9.38,61.9-33.23,127.72C143.48,271.15,152.86,209.25,152.86,209.25Z"/><polygon class="cls-20" points="186.09 219.72 160.05 242.64 152.86 209.25 161.18 197.67 186.09 219.72"/><polygon class="cls-20" points="186.09 219.72 212.12 242.64 219.31 209.25 210.72 197.67 186.09 219.72"/><polygon class="cls-21" points="185.88 219.9 185.88 219.72 185.98 219.81 186.09 219.72 186.08 219.9 198.93 231.21 195.58 247.35 185.98 247.35 176.38 247.35 173.03 231.21 185.88 219.9"/><path class="cls-21" d="M176.38,247.35H186l.1.55.11-.55h9.6s5.7,20.27,7.06,58.42A216.6,216.6,0,0,1,186.08,337a217.48,217.48,0,0,1-16.76-31.2C170.68,267.62,176.38,247.35,176.38,247.35Z"/><path class="cls-22" d="M234.34,111.36c.63-5.62,1-10.06,1-10.06s0-3.48.2-14.57c0-.76.06-1.49.1-2.19-15-2.53-80.36-11.75-99.15,16,0,.16,0,.33,0,.5C140.08,102.47,183.39,119.32,234.34,111.36Z"/><path class="cls-8" d="M249.92,62.23c-8-4.78-11.94-5.44-27.2-16.31s-35.83-9.78-35.83-9.78-20.57-1.09-35.83,9.78-19.24,11.53-27.2,16.31-.66,31.09,12.39,38.69l50.64-2.61,50.64,2.61C250.58,93.32,257.88,67,249.92,62.23Z"/><path class="cls-23" d="M136.25,100.92s49.53,9.35,101.28,0C227.58,93.1,173.84,81.79,136.25,100.92Z"/><rect class="cls-7" x="202.7" y="367.17" width="59.38" height="13.7"/></g><path class="cls-24" d="M196,66.22v-.94a10.32,10.32,0,0,1-1.9.54V63.67a1.22,1.22,0,0,1-1.22-1.21H181.81a1.36,1.36,0,0,1-1.36,1.34V66a11.56,11.56,0,0,1-1.89-.53v.93a23.81,23.81,0,0,0,2.31,10.75c.13.26.26.39.4.66a13.15,13.15,0,0,0,3.4,3.88c.27.13.4.4.67.53s.41.27.68.4a4,4,0,0,0,1.35.66c.54-.27.95-.52,1.48-.79h0c.28-.14.55-.4.82-.54a2.1,2.1,0,0,1,.54-.4,13.12,13.12,0,0,0,3.38-3.85c.14-.26.27-.4.4-.66A26.59,26.59,0,0,0,196,66.22ZM190.6,76.81c-.13.39-.53.66-1.09.93a5.39,5.39,0,0,1-2,.4,6.29,6.29,0,0,1-2.19-.4,1.87,1.87,0,0,1-1.09-1.19,8,8,0,0,1-.28-2v-.76h2.92v1.47c0,.39,0,.66.13.79s.28.27.41.13.4-.13.4-.26a1.09,1.09,0,0,0,.15-.66,2.62,2.62,0,0,0-.28-1.34c-.13-.26-.68-.52-1.49-1.07a5.63,5.63,0,0,1-1.48-1.08,2.14,2.14,0,0,1-.68-.92,7.36,7.36,0,0,1-.27-1.46,3.66,3.66,0,0,1,.4-2,2.41,2.41,0,0,1,1.09-.93,4.65,4.65,0,0,1,1.91-.41,5.6,5.6,0,0,1,2,.41,1.88,1.88,0,0,1,1.09.93,6.45,6.45,0,0,1,.28,2v.4h-2.85V69c0-.41,0-.67-.13-.81a.53.53,0,0,0-.4-.13c-.14,0-.28.13-.42.27a1.21,1.21,0,0,0-.13.67,2.39,2.39,0,0,0,.13.92,6.49,6.49,0,0,0,.82.67,7.42,7.42,0,0,1,2.57,2,5.52,5.52,0,0,1,.54,2.53A1.89,1.89,0,0,1,190.6,76.81Z"/><path class="cls-24" d="M194.39,77.65h20.7c-5.55,3.46-8.55,3.85-8.55,3.85h-15A16.74,16.74,0,0,0,194.39,77.65Z"/><path class="cls-24" d="M229,66.22c-2.18,2.15-4.06,3.84-6,5.45H196.83l-.54.79h26A64.07,64.07,0,0,1,216.17,77H194.8a24.85,24.85,0,0,0,2.3-10.75Z"/><path class="cls-24" d="M177.75,71.67H151.51c-1.9-1.61-3.79-3.33-5.95-5.45h31.92a29.93,29.93,0,0,0,.68,6Z"/><path class="cls-24" d="M179.79,77H158.55a68.71,68.71,0,0,1-6.09-4.49h25.7A24.58,24.58,0,0,0,179.79,77Z"/><path class="cls-24" d="M180.05,77.65a14.28,14.28,0,0,0,3,3.85H168.15S165,81,159.63,77.65Z"/></g></g></svg>