<svg id="Layer_1" data-name="Layer 1" xmlns="http://www.w3.org/2000/svg" xmlns:xlink="http://www.w3.org/1999/xlink" viewBox="0 0 533.8 55.6"><defs><style>.cls-1{fill:#00567c;}.cls-2{fill:#fff;}.cls-3{fill:#00b4ec;isolation:isolate;opacity:0.54;}.cls-4{fill:#003466;}.cls-5{fill:url(#linear-gradient);}</style><linearGradient id="linear-gradient" y1="30.85" x2="375.73" y2="30.85" gradientUnits="userSpaceOnUse"><stop offset="0" stop-color="#fff" stop-opacity="0"/><stop offset="0.12" stop-color="#fff" stop-opacity="0.09"/><stop offset="0.37" stop-color="#fff" stop-opacity="0.32"/><stop offset="0.72" stop-color="#fff" stop-opacity="0.69"/><stop offset="1" stop-color="#fff"/></linearGradient></defs><path class="cls-1" d="M396.39,24.48l-21-22.31a6.86,6.86,0,0,0-5-2.17h-8.19l9.95,29.33Z"/><path class="cls-2" d="M402.1,24.17H511.8s15.14,0,21.8,14.76c1,2.83-1,2.83-61.43,2.83H403.88l-32.13-7.55c-4.72-1.12-4.15-8,.7-8.32Z"/><path class="cls-3" d="M403.91,41.73l-32.16-7.52a4.24,4.24,0,0,1-2-7.18l38.32,7.43h123a29.09,29.09,0,0,1,2.55,4.43c1,2.84-1,2.84-61.44,2.84Z"/><path class="cls-2" d="M439.21,47.12h30.7A2.17,2.17,0,0,0,472.07,45V40a2.17,2.17,0,0,0-2.16-2.17h-30.7A2.17,2.17,0,0,0,437,40v5A2.19,2.19,0,0,0,439.21,47.12Z"/><path class="cls-3" d="M466.56,37.84h3.38A2.17,2.17,0,0,1,472.11,40v5a2.17,2.17,0,0,1-2.17,2.17h-3.38Z"/><polygon class="cls-2" points="462.38 24.17 437.74 12.12 425.46 12.12 441.92 24.17 462.38 24.17"/><polygon class="cls-2" points="388.13 30.57 370.92 36.89 360.01 35.67 374.71 27.99 388.13 30.57"/><polygon class="cls-4" points="382.27 36.66 388.13 30.57 375.73 35.13 382.27 36.66"/><polygon class="cls-1" points="470.61 34.46 457.54 47.12 443.92 47.12 470.61 34.46"/><path class="cls-1" d="M515.46,30.57a1.79,1.79,0,0,1,0-3.57h7a23.84,23.84,0,0,1,5.16,3.57Z"/><polygon class="cls-2" points="470.61 34.46 426.42 55.6 407.17 55.6 438.41 34.37 470.61 34.46"/><path class="cls-1" d="M490.92,32.42h0a1.71,1.71,0,0,0,1.72-1.72v-1A1.71,1.71,0,0,0,490.92,28h0a1.72,1.72,0,0,0-1.73,1.72v1A1.72,1.72,0,0,0,490.92,32.42Z"/><path class="cls-1" d="M482.12,32.42h0a1.71,1.71,0,0,0,1.72-1.72v-1A1.71,1.71,0,0,0,482.12,28h0a1.71,1.71,0,0,0-1.72,1.72v1A1.75,1.75,0,0,0,482.12,32.42Z"/><path class="cls-1" d="M473.35,32.42h0a1.71,1.71,0,0,0,1.72-1.72v-1A1.71,1.71,0,0,0,473.35,28h0a1.71,1.71,0,0,0-1.72,1.72v1A1.73,1.73,0,0,0,473.35,32.42Z"/><path class="cls-1" d="M464.58,32.42h0a1.71,1.71,0,0,0,1.72-1.72v-1A1.71,1.71,0,0,0,464.58,28h0a1.71,1.71,0,0,0-1.72,1.72v1A1.73,1.73,0,0,0,464.58,32.42Z"/><path class="cls-1" d="M455.81,32.42h0a1.72,1.72,0,0,0,1.73-1.72v-1A1.72,1.72,0,0,0,455.81,28h0a1.71,1.71,0,0,0-1.72,1.72v1A1.71,1.71,0,0,0,455.81,32.42Z"/><path class="cls-1" d="M447.05,32.42h0a1.71,1.71,0,0,0,1.72-1.72v-1A1.71,1.71,0,0,0,447.05,28h0a1.71,1.71,0,0,0-1.72,1.72v1A1.71,1.71,0,0,0,447.05,32.42Z"/><path class="cls-1" d="M438.28,32.42h0A1.71,1.71,0,0,0,440,30.7v-1A1.71,1.71,0,0,0,438.28,28h0a1.71,1.71,0,0,0-1.72,1.72v1A1.71,1.71,0,0,0,438.28,32.42Z"/><path class="cls-1" d="M429.51,32.42h0a1.71,1.71,0,0,0,1.72-1.72v-1A1.71,1.71,0,0,0,429.51,28h0a1.71,1.71,0,0,0-1.72,1.72v1A1.71,1.71,0,0,0,429.51,32.42Z"/><path class="cls-1" d="M420.75,32.42h0a1.71,1.71,0,0,0,1.72-1.72v-1A1.71,1.71,0,0,0,420.75,28h0A1.72,1.72,0,0,0,419,29.68v1A1.72,1.72,0,0,0,420.75,32.42Z"/><path class="cls-1" d="M412,32.42h0a1.71,1.71,0,0,0,1.72-1.72v-1A1.71,1.71,0,0,0,412,28h0a1.71,1.71,0,0,0-1.72,1.72v1A1.71,1.71,0,0,0,412,32.42Z"/><rect class="cls-5" y="28.57" width="375.73" height="4.56"/></svg>