<svg id="Layer_1" data-name="Layer 1" xmlns="http://www.w3.org/2000/svg" xmlns:xlink="http://www.w3.org/1999/xlink" viewBox="0 0 515.31 173.49"><defs><style>.cls-1{fill:url(#linear-gradient);}.cls-2{fill:#00567c;}.cls-3{fill:#fff;}.cls-4,.cls-7,.cls-8{fill:#00b4ec;}.cls-5{fill:#004159;}.cls-6{fill:#294d7d;}.cls-7,.cls-8{isolation:isolate;}.cls-7{opacity:0.42;}.cls-8{opacity:0.54;}.cls-9{fill:#afddf1;}.cls-10{fill:none;stroke:#00b4ec;stroke-linecap:round;stroke-miterlimit:10;stroke-width:4.24px;}</style><linearGradient id="linear-gradient" x1="214.24" y1="130.04" x2="448.85" y2="130.04" gradientTransform="translate(-61.24 -3.85) scale(1.3 1)" gradientUnits="userSpaceOnUse"><stop offset="0.01" stop-color="#fff"/><stop offset="0.06" stop-color="#fff" stop-opacity="0.92"/><stop offset="0.21" stop-color="#fff" stop-opacity="0.68"/><stop offset="0.36" stop-color="#fff" stop-opacity="0.47"/><stop offset="0.5" stop-color="#fff" stop-opacity="0.3"/><stop offset="0.64" stop-color="#fff" stop-opacity="0.17"/><stop offset="0.77" stop-color="#fff" stop-opacity="0.08"/><stop offset="0.89" stop-color="#fff" stop-opacity="0.02"/><stop offset="1" stop-color="#fff" stop-opacity="0"/></linearGradient></defs><rect class="cls-1" x="217.06" y="122.3" width="304.74" height="7.78" rx="3.89" transform="translate(53.04 -102.5) rotate(17)"/><path class="cls-2" d="M62.94,53.26,24.85,85.41l5.61,3.38L97.7,71.3C97.7,71.24,74.22,55.88,62.94,53.26Z"/><polygon class="cls-3" points="67.84 54.84 24.85 85.41 22.89 84.21 62.94 53.26 67.84 54.84"/><path class="cls-4" d="M59.45,49.67s7.9,11.22,38.31,21.57,45.87,8.18,45.87,8.18l-44.89-20Z"/><path class="cls-5" d="M185.86,54s8.18-.38,18-13.3c6.48-8.5,13.51-18.58,17.6-24.46a7.34,7.34,0,0,1,9-2.51L237.68,17l-12.15,52.2Z"/><path class="cls-3" d="M242.8,84.21,225.59,69.06S96.07,19.31,54.33,4.88c-33.68-12-41.31,2-41.31,2S1.47,7.87.17,13.7c-1.64,7.36,6,21,158,70.46,28.07,4.9,84.62,4.52,84.62,4.52V84.21Z"/><path class="cls-6" d="M13.68,6h0s13.68.27,22.39,3.6c-2.83-5.13-3.32-5.29-6.75-6.49a70.55,70.55,0,0,0-7.63-1.91C17.11,2.59,14.71,4.77,13.68,6Z"/><path class="cls-7" d="M45.17,2.15c0,.06,3,8.83,2.46,17.71l8.11,2.72c.88-2.77,2-15.69-2-17.76A75.51,75.51,0,0,0,45.17,2.15Z"/><path class="cls-7" d="M195,57.46a57.83,57.83,0,0,1,0,16.83l6.16,2.24a45.28,45.28,0,0,0,0-16.73Z"/><polygon class="cls-2" points="128.6 36.91 261.66 9.62 272.5 12.34 153.12 53.26 128.6 36.91"/><polygon class="cls-3" points="131.27 38.71 266.18 11.09 261.66 9.62 124.24 34.03 131.27 38.71"/><path class="cls-8" d="M242.8,88.73V86s-47.18-1-96.39-16.73S10.14,25.58,5,13c-.49-1.85.93-3.65,2.4-4.9C4.25,9.07.82,10.76.17,13.76c-1.64,7.35,6,21,158,70.45C186.25,89.17,242.8,88.73,242.8,88.73Z"/><path class="cls-2" d="M213.54,71.41,268,62.52a9.74,9.74,0,0,1,5.28.66l6.27,2.67a.8.8,0,0,1-.11,1.52L235.83,80.45C235.78,80.45,220.3,80.94,213.54,71.41Z"/><path class="cls-2" d="M64.68,15.88a1.46,1.46,0,0,1-1.47,1.47h0a1.46,1.46,0,0,1-1.47-1.47V13.81a1.46,1.46,0,0,1,1.47-1.47h0a1.46,1.46,0,0,1,1.47,1.47Z"/><path class="cls-2" d="M71.22,18.39a1.47,1.47,0,0,1-1.47,1.47h0a1.46,1.46,0,0,1-1.47-1.47V16.32a1.46,1.46,0,0,1,1.47-1.47h0a1.47,1.47,0,0,1,1.47,1.47Z"/><path class="cls-2" d="M77.81,21a1.46,1.46,0,0,1-1.47,1.47h0A1.46,1.46,0,0,1,74.87,21V18.88a1.46,1.46,0,0,1,1.47-1.47h0a1.46,1.46,0,0,1,1.47,1.47Z"/><path class="cls-2" d="M84.41,22.69a1.47,1.47,0,0,1-1.48,1.47h0a1.47,1.47,0,0,1-1.47-1.47V20.62a1.47,1.47,0,0,1,1.47-1.47h0a1.47,1.47,0,0,1,1.48,1.47Z"/><path class="cls-2" d="M91,25.2a1.47,1.47,0,0,1-1.47,1.47h0a1.46,1.46,0,0,1-1.47-1.47V23.13a1.46,1.46,0,0,1,1.47-1.47h0A1.47,1.47,0,0,1,91,23.13Z"/><path class="cls-2" d="M97.54,27.71a1.47,1.47,0,0,1-1.47,1.47h0a1.47,1.47,0,0,1-1.48-1.47V25.64a1.48,1.48,0,0,1,1.48-1.48h0a1.47,1.47,0,0,1,1.47,1.48Z"/><path class="cls-2" d="M104.13,30.16a1.46,1.46,0,0,1-1.47,1.47h0a1.46,1.46,0,0,1-1.47-1.47V28.09a1.46,1.46,0,0,1,1.47-1.47h0a1.46,1.46,0,0,1,1.47,1.47Z"/><path class="cls-2" d="M170,54.3a1.47,1.47,0,0,1-1.47,1.47h0A1.47,1.47,0,0,1,167,54.3V52.23a1.47,1.47,0,0,1,1.47-1.48h0A1.47,1.47,0,0,1,170,52.23Z"/><path class="cls-2" d="M176.55,56.8a1.47,1.47,0,0,1-1.47,1.47h0a1.47,1.47,0,0,1-1.48-1.47V54.73a1.47,1.47,0,0,1,1.48-1.47h0a1.47,1.47,0,0,1,1.47,1.47Z"/><path class="cls-2" d="M183.08,59.36a1.47,1.47,0,0,1-1.47,1.48h0a1.47,1.47,0,0,1-1.47-1.48V57.29a1.47,1.47,0,0,1,1.47-1.47h0a1.47,1.47,0,0,1,1.47,1.47Z"/><path class="cls-3" d="M114.27,30.43s23.1,6.87,36.83,18.85a6.17,6.17,0,0,1,1.8,6.22s0,.1-.06.1A6,6,0,0,1,146.52,60c-7.24-.7-23.54-2.94-37.16-9.21C113.77,33.15,114.27,30.43,114.27,30.43Z"/><path class="cls-9" d="M147.67,46.5c0,.06,1.36,7.85-4,13.14,1.09.11,2.08.21,3,.32a5.91,5.91,0,0,0,6.32-4.36c0-.05,0-.1,0-.1a6.15,6.15,0,0,0-1.8-6.22C150,48.36,148.87,47.43,147.67,46.5Z"/><ellipse class="cls-8" cx="111.55" cy="40.61" rx="10.35" ry="6.48" transform="translate(48.71 141.33) rotate(-78.05)"/><path class="cls-2" d="M116.06,41.6c-.92,4.25-3.65,7.3-6.15,6.76s-3.82-4.42-2.89-8.72,3.65-7.3,6.16-6.76S116.94,37.35,116.06,41.6Z"/><path class="cls-3" d="M32.37,56.48s23.1,6.86,36.83,18.85A6.14,6.14,0,0,1,71,81.54c0,.06,0,.11,0,.11A6,6,0,0,1,64.63,86c-7.25-.71-23.54-2.94-37.17-9.21C31.88,59.15,32.37,56.48,32.37,56.48Z"/><path class="cls-9" d="M65.72,72.55c0,.06,1.36,7.85-4,13.13,1.09.11,2.07.22,2.95.33A5.94,5.94,0,0,0,71,81.65c0-.05,0-.11,0-.11a6.14,6.14,0,0,0-1.8-6.21C68.11,74.4,66.91,73.48,65.72,72.55Z"/><path class="cls-9" d="M36,68c-1.19,5.56-5,9.48-8.5,8.77s-5.39-5.88-4.25-11.44,5-9.48,8.5-8.77S37.16,62.47,36,68Z"/><path class="cls-2" d="M34.17,67.65C33.24,71.9,30.52,75,28,74.4S24.19,70,25.12,65.68s3.65-7.3,6.16-6.75S35,63.4,34.17,67.65Z"/><path class="cls-10" d="M26.27,27.27S90.56,53.64,137.91,67.54"/><line class="cls-10" x1="146.9" y1="70.43" x2="159.44" y2="74.4"/></svg>