<svg id="Layer_1" data-name="Layer 1" xmlns="http://www.w3.org/2000/svg" viewBox="0 0 298.1 392.04"><defs><style>.cls-1{fill:#c4c5c6;}.cls-2{fill:#0d1949;opacity:0.32;}.cls-3{fill:#e6edf1;}.cls-4{fill:#9a9b9c;}.cls-5,.cls-6{fill:#fff;}.cls-5{opacity:0.6;}</style></defs><path class="cls-1" d="M184.21,0H113.9C51.25,0,0,51.26,0,113.9V278.15C0,340.79,51.25,392,113.9,392h70.31c62.64,0,113.89-51.25,113.89-113.89V113.9C298.1,51.26,246.85,0,184.21,0ZM255,140.73c.1,1.57.15,3.14.15,4.73V255.64a76.83,76.83,0,0,1-2.94,21.11,16.77,16.77,0,0,0-10,15.27c0,.36,0,.73,0,1.09a12.14,12.14,0,0,0-3.59-.55,12,12,0,0,0-7.35,2.51,12.09,12.09,0,0,0,.07-1.21A11.93,11.93,0,0,0,213,284a17.09,17.09,0,0,0-31.75-11.57,10.62,10.62,0,0,0-.5-1.69,11.95,11.95,0,0,0-23,3,12,12,0,0,0-5.66-1.41A11.82,11.82,0,0,0,140.15,284a11.58,11.58,0,0,0,.48,3.29,17.24,17.24,0,0,0-6-1.08,16.94,16.94,0,0,0-17.08,16.81,16.54,16.54,0,0,0,3,9.44,12.06,12.06,0,0,0-4.63-.92,11.92,11.92,0,0,0-10.79,6.76,17.2,17.2,0,0,0-31.12,1c-.12.29-.23.58-.34.88a11.85,11.85,0,0,0-8-5.37h0a82.1,82.1,0,0,1-21.44-35,79.89,79.89,0,0,1-3.48-23.41V223.66a4.93,4.93,0,0,1,.54.05V145.46c0-1.59.05-3.16.15-4.73A80.57,80.57,0,0,1,68.16,85.34H228.09A80.57,80.57,0,0,1,255,140.73Z"/><path class="cls-2" d="M177.8,31.37H120.3c-51.23,0-93.15,41.92-93.15,93.15V258.85c0,51.23,41.92,93.15,93.15,93.15h57.5C229,352,271,310.08,271,258.85V124.52C271,73.29,229,31.37,177.8,31.37ZM65.53,314.85a82.1,82.1,0,0,1-21.44-35,79.89,79.89,0,0,1-3.48-23.41V223.66a4.93,4.93,0,0,1,.54.05V145.46c0-1.59.05-3.16.15-4.73A80.57,80.57,0,0,1,68.16,85.34H228.09A80.57,80.57,0,0,1,255,140.73c.1,1.57.15,3.14.15,4.73V255.64a76.83,76.83,0,0,1-2.94,21.11,16.77,16.77,0,0,0-10,15.27c0,.36,0,.73,0,1.09a12.14,12.14,0,0,0-3.59-.55,12,12,0,0,0-7.35,2.51,12.09,12.09,0,0,0,.07-1.21A11.93,11.93,0,0,0,213,284a17.09,17.09,0,0,0-31.75-11.57,10.62,10.62,0,0,0-.5-1.69,11.95,11.95,0,0,0-23,3,12,12,0,0,0-5.66-1.41A11.82,11.82,0,0,0,140.15,284a11.58,11.58,0,0,0,.48,3.29,17.24,17.24,0,0,0-6-1.08,16.94,16.94,0,0,0-17.08,16.81,16.54,16.54,0,0,0,3,9.44,12.06,12.06,0,0,0-4.63-.92,11.92,11.92,0,0,0-10.79,6.76,17.2,17.2,0,0,0-31.12,1c-.12.29-.23.58-.34.88a11.85,11.85,0,0,0-8-5.37Z"/><path class="cls-3" d="M260.08,85.34q-1.18-2.25-2.49-4.41a93.87,93.87,0,0,0-9.34-12.85s0,0,0,0a1.79,1.79,0,0,0-.23-.26c-.41-.47-.83-.94-1.25-1.4a3.08,3.08,0,0,0-.25-.27c-.47-.53-1-1-1.46-1.56a92.87,92.87,0,0,0-66.32-28.84H119.38A92.87,92.87,0,0,0,53.06,64.56c-.5.52-1,1-1.46,1.56a3.08,3.08,0,0,0-.25.27c-.42.46-.84.93-1.25,1.4a1.79,1.79,0,0,0-.23.26s0,0,0,0a93.87,93.87,0,0,0-9.34,12.85q-1.3,2.16-2.49,4.41a92.21,92.21,0,0,0-10.87,43.52V263.19c0,51.23,41.92,93.15,93.15,93.15h57.5c51.23,0,93.15-41.92,93.15-93.15V128.86A92.21,92.21,0,0,0,260.08,85.34Zm-32,0A80.57,80.57,0,0,1,255,140.73c.1,1.57.15,3.14.15,4.73V255.64a76.83,76.83,0,0,1-2.94,21.11,16.77,16.77,0,0,0-10,15.27c0,.36,0,.73,0,1.09a12.14,12.14,0,0,0-3.59-.55,12,12,0,0,0-7.35,2.51,12.09,12.09,0,0,0,.07-1.21A11.93,11.93,0,0,0,213,284a17.09,17.09,0,0,0-31.75-11.57,10.62,10.62,0,0,0-.5-1.69,11.95,11.95,0,0,0-23,3,12,12,0,0,0-5.66-1.41A11.82,11.82,0,0,0,140.15,284a11.58,11.58,0,0,0,.48,3.29,17.24,17.24,0,0,0-6-1.08,16.94,16.94,0,0,0-17.08,16.81,16.54,16.54,0,0,0,3,9.44,12.06,12.06,0,0,0-4.63-.92,11.92,11.92,0,0,0-10.79,6.76,17.2,17.2,0,0,0-31.12,1c-.12.29-.23.58-.34.88a11.85,11.85,0,0,0-8-5.37h0a82.1,82.1,0,0,1-21.44-35,79.89,79.89,0,0,1-3.48-23.41V223.66a4.93,4.93,0,0,1,.54.05V145.46c0-1.59.05-3.16.15-4.73A80.57,80.57,0,0,1,68.16,85.34Z"/><path class="cls-4" d="M40.42,80.93A94.38,94.38,0,0,1,121,35.71h56a94.38,94.38,0,0,1,80.62,45.22Z"/><polygon class="cls-2" points="260.22 85.34 37.89 85.34 40.42 80.93 257.68 80.93 260.22 85.34"/><path class="cls-3" d="M112.54,65.89a5.31,5.31,0,0,0,5.35,5.26h62.32a5.31,5.31,0,0,0,5.35-5.26h0a5.31,5.31,0,0,0-5.35-5.27H117.89a5.31,5.31,0,0,0-5.35,5.27Z"/><path class="cls-5" d="M185.56,302.2v24.41s-13.75,4-30.2,8.72l-11.51,3.3H124.14a84.06,84.06,0,0,1-12.57-.94q-1-.15-2-.33a83.59,83.59,0,0,1-19.42-5.91l-1.71-.78a84,84,0,0,1-10.57-5.93l-1-.69-1-.72-1.51-1.09c-.42-.3-.83-.61-1.24-.93s-.85-.65-1.26-1c-1.39-1.1-2.73-2.24-4-3.43-.36-.32-.71-.64-1.06-1s-.74-.69-1.11-1.06a11.85,11.85,0,0,1,8,5.37c.11-.3.22-.59.34-.88a17.2,17.2,0,0,1,31.12-1,11.92,11.92,0,0,1,10.79-6.76,12.06,12.06,0,0,1,4.63.92,16.54,16.54,0,0,1-3-9.44,16.94,16.94,0,0,1,17.08-16.81,17.24,17.24,0,0,1,6,1.08,11.58,11.58,0,0,1-.48-3.29,11.82,11.82,0,0,1,11.91-11.72,12,12,0,0,1,5.66,1.41,11.95,11.95,0,0,1,23-3,11.93,11.93,0,0,1-8.51,3.53c-.41,0-.8,0-1.19-.06Z"/><path class="cls-6" d="M255.13,275.72a82.89,82.89,0,0,1-38.26,51.15A83.76,83.76,0,0,1,174,338.63H124.14a84.06,84.06,0,0,1-12.57-.94q-1-.15-2-.33a83.59,83.59,0,0,1-19.42-5.91l-1.71-.78a84,84,0,0,1-10.57-5.93l-1-.69-1-.72-1.51-1.09c-.42-.3-.83-.61-1.24-.93s-.85-.65-1.26-1c-1.39-1.1-2.73-2.24-4-3.43-.36-.32-.71-.64-1.06-1s-.74-.69-1.11-1.06a11.85,11.85,0,0,1,8,5.37c.11-.3.22-.59.34-.88a17.2,17.2,0,0,1,31.12-1,11.92,11.92,0,0,1,10.79-6.76,12.06,12.06,0,0,1,4.63.92,16.54,16.54,0,0,1-3-9.44,16.94,16.94,0,0,1,17.08-16.81,17.24,17.24,0,0,1,6,1.08,11.58,11.58,0,0,1-.48-3.29,11.82,11.82,0,0,1,11.91-11.72,12,12,0,0,1,5.66,1.41,11.95,11.95,0,0,1,23-3,10.62,10.62,0,0,1,.5,1.69A17,17,0,0,1,213,284a11.93,11.93,0,0,1,18.37,9.84,12.09,12.09,0,0,1-.07,1.21,12,12,0,0,1,7.35-2.51,12.14,12.14,0,0,1,3.59.55c0-.36,0-.73,0-1.09a16.77,16.77,0,0,1,10-15.27c.29-.13.59-.26.89-.37A18,18,0,0,1,255.13,275.72Z"/></svg>