<svg id="Layer_1" data-name="Layer 1" xmlns="http://www.w3.org/2000/svg" viewBox="0 0 298.1 392.04"><defs><style>.cls-1{fill:#374456;}.cls-2{fill:#0d1949;opacity:0.32;}.cls-3{fill:#515960;}.cls-4{fill:#29323f;}.cls-5{fill:#566672;}</style></defs><path class="cls-1" d="M184.21,0H113.9C51.25,0,0,51.26,0,113.9V278.15C0,340.79,51.25,392,113.9,392h70.31c62.64,0,113.89-51.25,113.89-113.89V113.9C298.1,51.26,246.85,0,184.21,0ZM255,140.73c.1,1.57.15,3.14.15,4.73V255.64a76.83,76.83,0,0,1-2.94,21.11c.29-.13.59-.26.89-.37a18,18,0,0,1,2.08-.66,83.58,83.58,0,0,1-56.22,59.14A83.91,83.91,0,0,1,174,338.63H124.14a84.06,84.06,0,0,1-12.57-.94q-1-.15-2-.33a82.78,82.78,0,0,1-17.42-5.06c-.67-.27-1.34-.56-2-.85l-1.71-.78a84,84,0,0,1-10.57-5.93l-1-.69-1-.72-1.51-1.09c-.42-.3-.83-.61-1.24-.93s-.85-.65-1.26-1c-1.39-1.1-2.73-2.24-4-3.43-.36-.32-.71-.64-1.06-1s-.74-.69-1.11-1.06h0a82.68,82.68,0,0,1-9.2-10.58,81.34,81.34,0,0,1-12.24-24.43,79.89,79.89,0,0,1-3.48-23.41V223.66a4.93,4.93,0,0,1,.54.05V145.46c0-1.59.05-3.16.15-4.73A80.57,80.57,0,0,1,68.16,85.34H228.09A80.57,80.57,0,0,1,255,140.73Z"/><path class="cls-2" d="M177.8,31.37H120.3c-51.23,0-93.15,41.92-93.15,93.15V258.85a92.55,92.55,0,0,0,19.18,56.44A93.71,93.71,0,0,0,92.11,347.6,92,92,0,0,0,120.3,352h57.5a92.76,92.76,0,0,0,15.37-1.28c44-7.38,77.78-45.87,77.78-91.87V124.52C271,73.29,229,31.37,177.8,31.37Zm39.07,295.5A83.82,83.82,0,0,1,174,338.63H124.14a84.06,84.06,0,0,1-12.57-.94q-1-.15-2-.33a82.78,82.78,0,0,1-17.42-5.06c-.67-.27-1.34-.56-2-.85l-1.71-.78a84,84,0,0,1-10.57-5.93l-1-.69-1-.72-1.51-1.09c-.42-.3-.83-.61-1.24-.93s-.85-.65-1.26-1c-1.39-1.1-2.73-2.24-4-3.43-.36-.32-.71-.64-1.06-1s-.74-.69-1.11-1.06h0a82.68,82.68,0,0,1-9.2-10.58,81.34,81.34,0,0,1-12.24-24.43,79.89,79.89,0,0,1-3.48-23.41V223.66a4.93,4.93,0,0,1,.54.05V145.46c0-1.59.05-3.16.15-4.73A80.57,80.57,0,0,1,68.16,85.34H228.09A80.57,80.57,0,0,1,255,140.73c.1,1.57.15,3.14.15,4.73V255.64a76.83,76.83,0,0,1-2.94,21.11c.29-.13.59-.26.89-.37a18,18,0,0,1,2.08-.66A82.89,82.89,0,0,1,216.87,326.87Z"/><path class="cls-3" d="M260.08,85.34q-1.18-2.25-2.49-4.41a93.87,93.87,0,0,0-9.34-12.85s0,0,0,0a1.79,1.79,0,0,0-.23-.26c-.41-.47-.83-.94-1.25-1.4a3.08,3.08,0,0,0-.25-.27c-.47-.53-1-1-1.46-1.56a92.87,92.87,0,0,0-66.32-28.84H119.38A92.87,92.87,0,0,0,53.06,64.56c-.5.52-1,1-1.46,1.56a3.08,3.08,0,0,0-.25.27c-.42.46-.84.93-1.25,1.4a1.79,1.79,0,0,0-.23.26s0,0,0,0a93.87,93.87,0,0,0-9.34,12.85q-1.3,2.16-2.49,4.41a92.21,92.21,0,0,0-10.87,43.52V263.19a93.37,93.37,0,0,0,91.66,93.13c.49,0,1,0,1.49,0h57.5c.8,0,1.59,0,2.38,0h0C230.33,355,271,313.62,271,263.19V128.86A92.21,92.21,0,0,0,260.08,85.34Zm-32,0A80.57,80.57,0,0,1,255,140.73c.1,1.57.15,3.14.15,4.73V255.64a76.83,76.83,0,0,1-2.94,21.11c.29-.13.59-.26.89-.37a18,18,0,0,1,2.08-.66,83.58,83.58,0,0,1-56.22,59.14A83.91,83.91,0,0,1,174,338.63H124.14a84.06,84.06,0,0,1-12.57-.94q-1-.15-2-.33a82.78,82.78,0,0,1-17.42-5.06c-.67-.27-1.34-.56-2-.85l-1.71-.78a84,84,0,0,1-10.57-5.93l-1-.69-1-.72-1.51-1.09c-.42-.3-.83-.61-1.24-.93s-.85-.65-1.26-1c-1.39-1.1-2.73-2.24-4-3.43-.36-.32-.71-.64-1.06-1s-.74-.69-1.11-1.06h0a82.68,82.68,0,0,1-9.2-10.58,81.34,81.34,0,0,1-12.24-24.43,79.89,79.89,0,0,1-3.48-23.41V223.66a4.93,4.93,0,0,1,.54.05V145.46c0-1.59.05-3.16.15-4.73A80.57,80.57,0,0,1,68.16,85.34Z"/><path class="cls-4" d="M40.42,80.93A94.38,94.38,0,0,1,121,35.71h56a94.38,94.38,0,0,1,80.62,45.22Z"/><polygon class="cls-2" points="260.22 85.34 37.89 85.34 40.42 80.93 257.68 80.93 260.22 85.34"/><path class="cls-5" d="M112.54,65.89a5.31,5.31,0,0,0,5.35,5.26h62.32a5.31,5.31,0,0,0,5.35-5.26h0a5.31,5.31,0,0,0-5.35-5.27H117.89a5.31,5.31,0,0,0-5.35,5.27Z"/></svg>