<svg id="Layer_1" data-name="Layer 1" xmlns="http://www.w3.org/2000/svg" viewBox="0 0 376 96.35"><defs><style>.cls-1,.cls-2{fill:#0084c7;}.cls-1{stroke:#fff;stroke-miterlimit:10;}</style></defs><path class="cls-1" d="M226.6,18c0-1.7-.1-3.2-.2-4.5a61.58,61.58,0,0,1-8.4,2.4V6.3A5.72,5.72,0,0,1,212.3.5H162.2a5.66,5.66,0,0,1-1.7,4.1,5.9,5.9,0,0,1-4.1,1.7v9.6a61.58,61.58,0,0,1-8.4-2.4c-.1,1.3-.1,2.8-.2,4.5-.2,11.8,1.1,31.7,10.1,49.3.5,1,1.1,2.1,1.7,3.1a61.61,61.61,0,0,0,15.3,17.9,37.12,37.12,0,0,0,3.2,2.3c1,.7,2.1,1.4,3.2,2.1a54.87,54.87,0,0,0,5.9,3.1c2.3-1.1,4.5-2.3,6.5-3.5h0c1.2-.8,2.4-1.5,3.5-2.4a18.39,18.39,0,0,0,2.2-1.7,62.93,62.93,0,0,0,15.3-17.9c.6-1,1.1-2.1,1.7-3.1C225.5,49.7,226.8,29.8,226.6,18ZM202.4,66.3a10.27,10.27,0,0,1-5.2,4.5,20.8,20.8,0,0,1-8.9,1.8,19.9,19.9,0,0,1-9.5-2.1,10.83,10.83,0,0,1-5.2-5.4,28.31,28.31,0,0,1-1.2-9.3V52.3h12.9v6.6a10.22,10.22,0,0,0,.5,3.9,2.08,2.08,0,0,0,1.9.9,2.48,2.48,0,0,0,2.1-1.1,5.63,5.63,0,0,0,.7-3.2c0-3.1-.4-5.2-1.3-6.2a44.31,44.31,0,0,0-6.5-4.9,77.23,77.23,0,0,1-6.9-5A11.47,11.47,0,0,1,173,39a19.76,19.76,0,0,1-1.1-7c0-4.1.5-7.1,1.6-9a10.15,10.15,0,0,1,5.1-4.4,19.85,19.85,0,0,1,8.5-1.6,21.26,21.26,0,0,1,9.2,1.8c2.5,1.2,4.2,2.6,5,4.4s1.2,4.8,1.2,9v2.1H189.6v-4a8.17,8.17,0,0,0-.5-3.5,1.88,1.88,0,0,0-1.7-.8,2.06,2.06,0,0,0-1.9,1,6.29,6.29,0,0,0-.6,3.1,8.43,8.43,0,0,0,.7,4q.75,1.35,3.9,3.3c6.2,3.7,10.1,6.7,11.7,9.1s2.4,6.2,2.4,11.4Q203.75,63.6,202.4,66.3Z"/><path class="cls-2" d="M219.8,70.4H313C288.3,86,274.5,88.3,274.5,88.3H206.7A74.8,74.8,0,0,0,219.8,70.4Z"/><path class="cls-2" d="M376,18c-9.5,9.6-18.4,17.9-26.7,25.1H230.9l-2.4,3.4H345.3a314.54,314.54,0,0,1-27.6,20.9H221.3c8.3-17.4,10.1-36.5,10.2-49.3H376Z"/><path class="cls-2" d="M145.1,43.1H26.7C18.4,35.9,9.5,27.6,0,18H143.6a137.88,137.88,0,0,0,2.9,27.2Z"/><path class="cls-2" d="M153.9,67.3H58.3A311.47,311.47,0,0,1,30.7,46.5H146.8A100.35,100.35,0,0,0,153.9,67.3Z"/><path class="cls-2" d="M155.4,70.4a72.61,72.61,0,0,0,13.2,17.9H101.5S87.7,86,63,70.4Z"/></svg>