<?xml version="1.0" encoding="utf-8"?>
<!-- Generator: Adobe Illustrator 26.3.1, SVG Export Plug-In . SVG Version: 6.00 Build 0)  -->
<svg version="1.1" id="Layer_1" xmlns="http://www.w3.org/2000/svg" xmlns:xlink="http://www.w3.org/1999/xlink" x="0px" y="0px"
	 viewBox="0 0 400 100" style="enable-background:new 0 0 400 100;" xml:space="preserve">
<style type="text/css">
	.st0{fill:#FFBB32;stroke:#20181A;stroke-width:0.8055;stroke-miterlimit:10;}
	.st1{fill:#FFFFFF;stroke:#FFFFFF;stroke-miterlimit:10;}
	.st2{fill:#FFFFFF;}
</style>
<path class="st0" d="M194.1,93.9c1.9,1.1,3.8,2.2,5.9,3.1c2.3-1.1,4.5-2.3,6.5-3.5"/>
<path class="st1" d="M238.8,19.1c0-1.7-0.1-3.2-0.2-4.5c-2.4,0.9-5.2,1.7-8.4,2.4V7.4c-3.2,0-5.7-2.6-5.7-5.8h-50.1
	c0,1.6-0.6,3-1.7,4.1c-1,1-2.5,1.7-4.1,1.7V17c-3.2-0.7-6-1.5-8.4-2.4c-0.1,1.3-0.1,2.8-0.2,4.5c-0.2,11.8,1.1,31.7,10.1,49.3
	c0.5,1,1.1,2.1,1.7,3.1c3.8,6.6,8.8,12.8,15.3,17.9c1,0.8,2.1,1.6,3.2,2.3c1,0.7,2.1,1.4,3.2,2.1c1.9,1.1,3.8,2.2,5.9,3.1
	c2.3-1.1,4.5-2.3,6.5-3.5h0c1.2-0.8,2.4-1.5,3.5-2.4c0.8-0.5,1.5-1.1,2.2-1.7c6.5-5.2,11.5-11.3,15.3-17.9c0.6-1,1.1-2.1,1.7-3.1
	C237.7,50.8,239,30.9,238.8,19.1z M214.6,67.4c-0.9,1.8-2.6,3.3-5.2,4.5c-2.6,1.2-5.5,1.8-8.9,1.8c-3.7,0-6.9-0.7-9.5-2.1
	c-2.6-1.4-4.3-3.2-5.2-5.4c-0.8-2.2-1.2-5.3-1.2-9.3v-3.5h12.9V60c0,2,0.2,3.3,0.5,3.9c0.4,0.6,1,0.9,1.9,0.9c0.9,0,1.6-0.4,2.1-1.1
	c0.5-0.7,0.7-1.8,0.7-3.2c0-3.1-0.4-5.2-1.3-6.2c-0.9-1-3.1-2.6-6.5-4.9c-3.5-2.3-5.7-4-6.9-5c-1.1-1-2.1-2.5-2.8-4.3
	c-0.7-1.8-1.1-4.2-1.1-7c0-4.1,0.5-7.1,1.6-9c1.1-1.9,2.7-3.4,5.1-4.4c2.3-1.1,5.2-1.6,8.5-1.6c3.6,0,6.7,0.6,9.2,1.8
	c2.5,1.2,4.2,2.6,5,4.4c0.8,1.8,1.2,4.8,1.2,9v2.1h-12.9v-4c0-1.8-0.2-3-0.5-3.5c-0.3-0.5-0.9-0.8-1.7-0.8c-0.8,0-1.5,0.3-1.9,1
	c-0.4,0.7-0.6,1.7-0.6,3.1c0,1.8,0.2,3.1,0.7,4c0.5,0.9,1.8,2,3.9,3.3c6.2,3.7,10.1,6.7,11.7,9.1c1.6,2.4,2.4,6.2,2.4,11.4
	C215.9,62.8,215.5,65.6,214.6,67.4z"/>
<path class="st2" d="M232,71.5h93.2c-24.7,15.6-38.5,17.9-38.5,17.9h-67.8C224.3,84,228.6,77.9,232,71.5z"/>
<path class="st2" d="M388.2,19.1c-9.5,9.6-18.4,17.9-26.7,25.1H243.1l-2.4,3.4h116.8c-10.2,8.6-19.4,15.4-27.6,20.9h-96.4
	c8.3-17.4,10.1-36.5,10.2-49.3H388.2z"/>
<path class="st2" d="M157.3,44.2H38.9C30.6,37,21.7,28.7,12.2,19.1h143.6c0.1,7.5,0.7,17,2.9,27.2L157.3,44.2z"/>
<path class="st2" d="M166.1,68.4H70.5C62.3,63,53.1,56.1,42.9,47.6H159C160.6,54.4,162.8,61.6,166.1,68.4z"/>
<path class="st2" d="M167.6,71.5c3.4,6.4,7.7,12.5,13.2,17.9h-67.1c0,0-13.8-2.3-38.5-17.9H167.6z"/>
</svg>
