<?xml version="1.0" encoding="utf-8"?>
<!-- Generator: Adobe Illustrator 26.3.1, SVG Export Plug-In . SVG Version: 6.00 Build 0)  -->
<svg version="1.1" id="Layer_1" xmlns="http://www.w3.org/2000/svg" xmlns:xlink="http://www.w3.org/1999/xlink" x="0px" y="0px"
	 viewBox="0 0 520 520" style="enable-background:new 0 0 520 520;" xml:space="preserve">
<style type="text/css">
	.st0{fill:#FFFFFF;stroke:#FFFFFF;stroke-width:5.3721;stroke-miterlimit:10;}
</style>
<path class="st0" d="M471.7,98.1c0-9.1-0.5-17.2-1.1-24.2c-12.9,4.8-27.9,9.1-45.1,12.9V35.2c-17.2,0-30.6-14-30.6-31.2H125.8
	c0,8.6-3.2,16.1-9.1,22c-5.4,5.4-13.4,9.1-22,9.1v51.6C77.4,83,62.4,78.7,49.5,73.9c-0.5,7-0.5,15-1.1,24.2
	c-1.1,63.4,5.9,170.3,54.3,264.8c2.7,5.4,5.9,11.3,9.1,16.7c20.4,35.5,47.3,68.8,82.2,96.2c5.4,4.3,11.3,8.6,17.2,12.4
	c5.4,3.8,11.3,7.5,17.2,11.3c10.2,5.9,20.4,11.8,31.7,16.7c12.4-5.9,24.2-12.4,34.9-18.8l0,0c6.4-4.3,12.9-8.1,18.8-12.9
	c4.3-2.7,8.1-5.9,11.8-9.1c34.9-27.9,61.8-60.7,82.2-96.2c3.2-5.4,5.9-11.3,9.1-16.7C465.8,268.3,472.8,161.4,471.7,98.1z
	 M341.7,357.5c-4.8,9.7-14,17.7-27.9,24.2c-14,6.4-29.5,9.7-47.8,9.7c-19.9,0-37.1-3.8-51-11.3c-14-7.5-23.1-17.2-27.9-29
	c-4.3-11.8-6.4-28.5-6.4-50v-18.8h69.3v35.5c0,10.7,1.1,17.7,2.7,21c2.1,3.2,5.4,4.8,10.2,4.8c4.8,0,8.6-2.1,11.3-5.9
	s3.8-9.7,3.8-17.2c0-16.7-2.1-27.9-7-33.3c-4.8-5.4-16.7-14-34.9-26.3c-18.8-12.4-30.6-21.5-37.1-26.9c-5.9-5.4-11.3-13.4-15-23.1
	c-3.8-9.7-5.9-22.6-5.9-37.6c0-22,2.7-38.1,8.6-48.3c5.9-10.2,14.5-18.3,27.4-23.6c12.4-5.9,27.9-8.6,45.7-8.6
	c19.3,0,36,3.2,49.4,9.7c13.4,6.4,22.6,14,26.9,23.6c4.3,9.7,6.4,25.8,6.4,48.3v11.3h-69.3v-21.5c0-9.7-1.1-16.1-2.7-18.8
	c-1.6-2.7-4.8-4.3-9.1-4.3s-8.1,1.6-10.2,5.4c-2.1,3.8-3.2,9.1-3.2,16.7c0,9.7,1.1,16.7,3.8,21.5c2.7,4.8,9.7,10.7,21,17.7
	c33.3,19.9,54.3,36,62.9,48.9c8.6,12.9,12.9,33.3,12.9,61.2C348.7,332.8,346.5,347.9,341.7,357.5z"/>
</svg>
