<svg data-name="Layer 2" viewBox="0 0 35 35" xmlns="http://www.w3.org/2000/svg"><path d="M22.92 13.42H12.08a6.59 6.59 0 0 1 0-13.17h10.84a6.59 6.59 0 0 1 0 13.17ZM12.08 2.75a4.09 4.09 0 0 0 0 8.17h10.84a4.09 4.09 0 0 0 0-8.17Z" fill="#ffffff" class="fill-000000"></path><path d="M17.42 24.08h-5.34a6.58 6.58 0 0 1 0-13.16 1.25 1.25 0 0 1 0 2.5 4.08 4.08 0 0 0 0 8.16h4.09v-9.41a1.25 1.25 0 0 1 2.5 0v10.66a1.25 1.25 0 0 1-1.25 1.25Z" fill="#ffffff" class="fill-000000"></path><path d="M12.16 34.75a6.59 6.59 0 1 1 0-13.17 1.25 1.25 0 0 1 0 2.5 4.09 4.09 0 1 0 4.08 4.09v-5.34a1.25 1.25 0 0 1 2.5 0v5.34a6.59 6.59 0 0 1-6.58 6.58Z" fill="#ffffff" class="fill-000000"></path><path d="M22.83 24.25a6.67 6.67 0 1 1 6.67-6.67 6.67 6.67 0 0 1-6.67 6.67Zm0-10.83A4.17 4.17 0 1 0 27 17.58a4.17 4.17 0 0 0-4.17-4.16Z" fill="#ffffff" class="fill-000000"></path><path d="M17.42 13.42a1.25 1.25 0 0 1-1.24-1.26l.08-10.67A1.25 1.25 0 0 1 17.5.25a1.25 1.25 0 0 1 1.24 1.26l-.08 10.67a1.26 1.26 0 0 1-1.24 1.24Z" fill="#ffffff" class="fill-000000"></path></svg>