<svg viewBox="0 0 128 128" xml:space="preserve" xmlns="http://www.w3.org/2000/svg" enable-background="new 0 0 128 128"><path d="M64 126c34.2 0 62-27.8 62-62S98.2 2 64 2 2 29.8 2 64s27.8 62 62 62zM16 88.7l25.2-.2c2.8 10.1 7.5 19.9 13.9 28.7C38 114.4 23.7 103.5 16 88.7zM47.6 47H79c2.3 11 2.3 22.3.2 33.3l-31.6.2c-2.3-11.1-2.3-22.5 0-33.5zm15.7 67.9c-6.3-8.1-10.9-17-13.7-26.4l27.5-.2c-2.9 9.4-7.5 18.4-13.8 26.6zm8 2.6c6.6-9 11.3-18.9 14.1-29.3l26.9-.2c-7.8 15.7-23 27-41 29.5zM118 64c0 5.6-.9 11-2.4 16l-28.3.2c2-11 1.9-22.2-.2-33.2h28.1c1.8 5.3 2.8 11.1 2.8 17zm-6.2-25H85.2c-2.9-10-7.5-19.7-13.9-28.5C89 12.9 103.9 23.8 111.8 39zm-34.9 0H49.7c2.9-9.2 7.4-17.9 13.6-25.9 6.2 8 10.7 16.7 13.6 25.9zM55.1 10.8C48.8 19.5 44.2 29 41.4 39H16.2c7.7-14.7 21.9-25.4 38.9-28.2zM39.5 47c-2.1 11.1-2.1 22.4-.1 33.5l-26.7.2C10.9 75.4 10 69.8 10 64c0-5.9 1-11.7 2.8-17h26.7z" fill="#ffffff" class="fill-000000"></path></svg>