<svg id="Layer_1" data-name="Layer 1" xmlns="http://www.w3.org/2000/svg" viewBox="0 0 310.64 66.98"><defs><style>.cls-1{fill:#fff;}</style></defs><path class="cls-1" d="M304.1,33.65A29.63,29.63,0,0,1,285.87,40c-11.73.24-23.48.13-35.22.16a5.89,5.89,0,0,1-.86-.18c.4-.69.76-1.24,1-1.84a5.21,5.21,0,0,0,.75-2c0-8.7,0-17.41,0-26.11V8.25h10V33.36a3.64,3.64,0,0,0,.93.2c7.24-.05,14.48,0,21.72-.25a19.56,19.56,0,0,0,10.9-3.41c6.59-4.7,6.86-13.42.55-18.52a18,18,0,0,0-10.43-3.8c-3.9-.27-7.82-.32-11.73-.35-8.71-.07-17.41-.05-26.13-.08h-1.76c0-.93,0-1.7,0-2.46,0-1,0-1.89-1.06-2.49-.35-.19-.39-1-.66-1.73h1.87q16.72,0,33.46,0c5.65,0,11.27.42,16.62,2.35,6.28,2.25,11.32,6,13.76,12.48C312.12,22.1,310,29,304.1,33.65Z"/><path class="cls-1" d="M64.92,32c-2.06,2.48-4.1,5-6.19,7.41a1.64,1.64,0,0,1-1.16.37c-11-.07-22,0-33-.33a30.19,30.19,0,0,1-17.49-6c-8.64-6.4-9.48-17.69-1.8-25.22A26.72,26.72,0,0,1,21.83.58C27.61.06,33.46.15,39.27,0,42.48,0,45.7,0,49,.22c-2.57,2.65-4.06,6.28-7.41,8.09-.05-.18-.09-.35-.13-.53-.48-.36-1-1-1.44-1-5.47.11-11,.13-16.4.56a15.06,15.06,0,0,0-9.93,4.85,11.2,11.2,0,0,0-3.16,8.92c1.45-2.1,2.62-3.92,3.92-5.65a2.2,2.2,0,0,1,1.51-.8q19.8,0,39.63.08c.27,0,.56,0,1.15.08-.62.8-1.1,1.43-1.59,2-1.35,1.68-2.66,3.39-4.08,5a11.19,11.19,0,0,1-2.34,1.55c.1-1.62-.33-2-1.45-2q-18,0-36,0c-.19,0-.39,0-.73.06a10.7,10.7,0,0,0,3.73,7c3.36,2.95,7.45,4.08,11.76,4.32,5,.27,10.06.27,15.1.31,5.88.06,11.74.06,17.61,0a11.31,11.31,0,0,0,2.78-.69c1-.28,2.06-.59,3.09-.89C64.74,31.65,64.84,31.83,64.92,32Z"/><path class="cls-1" d="M185.16.39c-.47.84-.66,1.58-1.11,1.88a1.94,1.94,0,0,0-.94,1.94c0,6.65.09,13.3,0,19.94a3.74,3.74,0,0,1-.91,2.29c-2.88,3.18-5.86,6.29-9,9.67v-15h-1.76c-7.63,0-15.26,0-22.9,0-1.69,0-3.31,0-4.71,1.14a4.78,4.78,0,0,1-1.37.49c0,2.21,0,4.5,0,6.78,0,2,0,4,0,6,0,1.12-.18,2.24,1.18,2.86.32.15.34,1,.53,1.64H130.43c.53-.88.89-1.46,1.22-2s.7-1,.7-1.46q0-16.43,0-32.84c0-.43-.41-.88-.66-1.3S131,1.18,130.43.33H144a1.46,1.46,0,0,1-.65,2,2.07,2.07,0,0,0-.83,1.51c-.06,5.18,0,10.36,0,15.54a6.64,6.64,0,0,0,.15.86c1.39-1.73,2.69-3.2,3.82-4.82A2.71,2.71,0,0,1,149,14.25c7.38.05,14.78,0,22.16.05h2V10.8c0-2.24.07-4.5,0-6.74a4.33,4.33,0,0,0-.82-1.67c-.32-.57-.69-1.13-1.22-2Z"/><path class="cls-1" d="M112.62.2c-2.23,2.7-4.23,5.2-6.33,7.62-.84,1-1.68.62-2.06-.85H84c0,.42-.08.79-.08,1.17,0,9.29,0,18.57-.06,27.85a1.94,1.94,0,0,0,.92,1.95c.44.28.59,1,1,1.83H72c.32-.73.4-1.51.82-1.78a2.37,2.37,0,0,0,1.11-2.32c0-9,0-18,0-27V6.94c-.59,0-1.1-.08-1.62-.08-6.6-.05-13.21-.11-19.82-.07a7.38,7.38,0,0,0-3.16.88,2.57,2.57,0,0,1-2.88-.19c1.94-2.4,3.8-4.78,5.76-7,.28-.35,1.06-.38,1.6-.38q19.31,0,38.6.09L110.89.2Z"/><path class="cls-1" d="M233.33,38.44l1.5-.2c-1.48-1.59-2.8-3-4.12-4.42-2.38-2.53-4.74-5.08-7.18-7.54a3.2,3.2,0,0,0-2-.89c-5.58-.08-11.15-.08-16.72-.07a3.79,3.79,0,0,0-1.84.35,1.9,1.9,0,0,1-2.6-.43c1.87-2,3.71-4.11,5.64-6.09a2.22,2.22,0,0,1,1.47-.41c2.83,0,5.66,0,8.8,0-4.06-4.21-7.92-8.23-11.93-12.38L210.73.75c12.13,12.76,24.65,26,37.4,39.38h-14.8Z"/><path class="cls-1" d="M127.07,37.92c.31.56.64,1.11,1.13,1.94H114.32c.5-.87.85-1.42,1.15-2a5.39,5.39,0,0,0,.84-2c.09-7.92.1-15.83.12-23.74,0-2.69,0-5.39,0-8.07a4.75,4.75,0,0,0-.87-1.8c-.31-.57-.7-1.1-1.24-1.94H128.2c-.44.79-.78,1.37-1.1,2s-.69,1-.69,1.46q0,16.44,0,32.85C126.44,37,126.84,37.47,127.07,37.92Z"/><path class="cls-1" d="M185.75,37.68,187,40H171.85c10.6-11,21-21.75,31.45-32.61,2,2.1,3.82,4.09,5.79,6.18Z"/><path class="cls-1" d="M164.49,56.13c-2.32,1.35-2.43,3.93-3.35,6-.48,1.12-.79,2.31-1.25,3.44a6,6,0,0,1-.86,1.17,4.7,4.7,0,0,1-.87-1.16c-.64-1.88-1.2-3.79-1.91-6.06-.83,2.34-1.51,4.31-2.25,6.26a3.36,3.36,0,0,1-.72,1c-.29-.31-.73-.59-.86-1-.65-1.89-1.16-3.84-1.84-5.71-.53-1.47-1.25-2.88-1.93-4.42h4.89a2.38,2.38,0,0,1,.09.35c-1.69.95-1,2.26-.58,3.54.28.82.52,1.64.91,2.89.61-1.71,1.16-3,1.49-4.35.09-.4-.38-1-.68-1.4s-.54-.49-.66-1h5.16a1.47,1.47,0,0,1,.09.32c-1.74,1.08-.94,2.47-.51,3.82a14.11,14.11,0,0,0,.91,2.32c.2-2.1,2.92-4.1-.16-6.42h4.86C164.47,56,164.52,56.11,164.49,56.13Z"/><path class="cls-1" d="M129.59,65.62A8.75,8.75,0,0,1,125.38,61a2.62,2.62,0,0,1,.33-.37,2.71,2.71,0,0,0,1.3-3.26c-.44-1.41-1.67-1.69-2.93-1.74-2-.07-3.91-.07-5.87-.08a4.35,4.35,0,0,0-1,.31c.37.33.51.56.64.57,1.51,0,1.68,1,1.63,2.18-.06,1.75,0,3.51,0,5.26,0,.92-.27,1.48-1.23,1.67a2.9,2.9,0,0,0-.87.57c0,.09.1.19.15.28h6.83c-.68-.75-1.8-1.09-2.14-1.79s-.08-1.94-.08-2.92l.44-.2a19.48,19.48,0,0,1,1.38,2,5.29,5.29,0,0,0,5.44,3.19,4,4,0,0,0,1-.34C130.09,66.09,129.89,65.75,129.59,65.62Zm-7.51-5.28V56.57c1.27.16,2.33.44,2.28,1.84S123.44,60.31,122.08,60.34Z"/><path class="cls-1" d="M194.45,66.49c-3.55-3.12-3.48-7.82-5.91-11.71a11.57,11.57,0,0,0-1.73,2c-1.57,3.16-2,6.87-4.86,9.37,0,0,.05.18.08.28h5.09c-.5-.65-1.47-.94-1.59-1.42-.16-.71.08-2,.55-2.24a4.24,4.24,0,0,1,2.88-.06c.44.16.81,1.27.77,1.92s-.67,1.13-1.16,1.85ZM186.53,61c.08-.2.15-.4.22-.59s.21-.58.33-.9l.4-1.07c.26.66.46,1.18.66,1.67.08.2.16.39.23.59l.12.3Z"/><path class="cls-1" d="M65.17,66.21H71c-3.63-3.13-3.52-7.84-6.11-11.95a13.11,13.11,0,0,0-1.57,2.06c-.7,1.5-1.17,3.09-1.85,4.59-.8,1.77-1.17,3.82-3,4.94,0,0,0,.17.06.32h5.06q0-.23.09-.42a4,4,0,0,1-1.26-.51A1.8,1.8,0,0,1,62,64c0-.51.24-1.39.51-1.44,1-.21,2.46-.58,3-.1C66.51,63.49,67,65,65.17,66.21Zm-2.12-5.5c.28-.75.53-1.45,1-2.6.4,1.08.66,1.75,1,2.6Z"/><path class="cls-1" d="M223.9,55.9c-.39.4-.54.72-.81.83-2.38,1.12-4.59,5.34-3.93,7.81.13.47.81.8,1.25,1.17.27.22.58.39.86.59-.3.14-.6.41-.91.42-1.76,0-3.52,0-5.28,0a4.9,4.9,0,0,1-1-.35c.39-.32.51-.48.67-.54,1.8-.64,2.41-1.93,1.64-3.78a34,34,0,0,0-2-4.06,5.28,5.28,0,0,0-1.4-1.19,1.58,1.58,0,0,1-.66-.94h6.14l-1.56,1.35c.46,1,1,2.16,1.51,3.37,1.68-2.47,1.7-2.75.26-4.66Z"/><path class="cls-1" d="M250.69,66.12A5.32,5.32,0,0,1,248,67c-3.53-.13-4.09-.37-4-4.67.51.61.76,1,1.06,1.27a10.17,10.17,0,0,0,2.28,2.09,2.1,2.1,0,0,0,1.91-.68c.25-.33-.09-1.43-.51-1.84a11.9,11.9,0,0,0-2.47-1.53,3,3,0,0,1-1.8-3.07,3.28,3.28,0,0,1,2.5-2.76l.28-.1c3.18-.78,4.45.4,3.77,3.93a6.8,6.8,0,0,1-.83-.93c-.28-.46-.35-1.21-.71-1.38a2.65,2.65,0,0,0-2.06-.18c-.81.47-.63,1.38,0,2a11.16,11.16,0,0,0,1.69,1.15A15.19,15.19,0,0,1,251,61.57,2.85,2.85,0,0,1,250.69,66.12Z"/><path class="cls-1" d="M95.08,58.24c0,1.81,0,3.62,0,5.42,0,.88.2,1.65,1.3,1.8.26,0,.47.36.7.55-.25.14-.51.39-.77.4-1.62,0-3.22,0-4.84,0a2.73,2.73,0,0,1-.84-.35c.22-.21.41-.58.63-.61,1.21-.13,1.34-1,1.35-1.89,0-1.61,0-3.22,0-4.83,0-1.21-.09-2.27-1.63-2.42-.16,0-.28-.31-.62-.7h7c-.45.4-.65.77-.89.8C95.34,56.52,95.08,57.29,95.08,58.24Z"/></svg>