<svg id="Layer_1" data-name="Layer 1" xmlns="http://www.w3.org/2000/svg" viewBox="0 0 140.5 140.35"><defs><style>.cls-1{fill:#fff;}</style></defs><g id="K6z0if.tif"><path class="cls-1" d="M108,129.3c-33.18,21.21-74.87,10.08-94.6-18l5.39-1.54L52,100.3l55.37-15.78,19.09-5.44a9.32,9.32,0,0,0,.9-.27,1,1,0,0,0,.7-1.06,1,1,0,0,0-1-.83c-1,0-2,.08-3,.15-2.27.14-4.53.3-6.79.45l-9.5.64-8.17.55-9.55.64L83,79.81l-3.73.26c.22-.22.35-.37.49-.5a39.82,39.82,0,0,0,7-8.62,27.16,27.16,0,0,0,3.76-16,32,32,0,0,0-4.74-14.42A53,53,0,0,0,74.28,27.47,96.73,96.73,0,0,0,53.87,14.66,151.56,151.56,0,0,0,38.2,8.23l-.42-.17C63.4-6.23,104.23-3,127.39,29.54A69.89,69.89,0,0,1,108,129.3Z"/><path class="cls-1" d="M52.65,59.91a59.87,59.87,0,0,1-4.43,19A44.08,44.08,0,0,1,32.54,98a65.71,65.71,0,0,1-18.34,8.6c-1,.3-2,.57-2.93.88a.49.49,0,0,1-.67-.26A65.46,65.46,0,0,1,1.76,85.79,74.89,74.89,0,0,1,0,70.43,69.06,69.06,0,0,1,9.21,35.49,71,71,0,0,1,30.85,12c.48-.34,1-.63,1.47-1a.56.56,0,0,1,.81.05A48.07,48.07,0,0,1,42.51,21a55.57,55.57,0,0,1,8.87,20.48A63.05,63.05,0,0,1,52.65,59.91Z"/></g></svg>